<svg xmlns="http://www.w3.org/2000/svg" xmlns:xlink="http://www.w3.org/1999/xlink" xmlns:lucid="lucid" width="1562" height="1253"><g transform="translate(-161.66666666666652 -49.5)" lucid:page-tab-id="ceaGpwl-XSJO"><path d="M0 0h2000v1500H0z" fill="#fff"/><path d="M182.67 70.5h420v20l-10 10h-410z" fill="#fff"/><path d="M602.67 70.5v20l-10 10h-410" stroke="#282c33" stroke-width="2" fill="none"/><path d="M182.67 70.5h1520v1211h-1520z" stroke="#282c33" stroke-width="2" fill="none"/><use xlink:href="#a" transform="matrix(1,0,0,1,190.66666666666652,70.5) translate(12.310802469135865 19.488888888888887)"/><use xlink:href="#b" transform="matrix(1,0,0,1,190.66666666666652,70.5) translate(70.91574074074079 19.488888888888887)"/><use xlink:href="#c" transform="matrix(1,0,0,1,190.66666666666652,70.5) translate(228.96203703703702 19.488888888888887)"/><use xlink:href="#d" transform="matrix(1,0,0,1,190.66666666666652,70.5) translate(260.1348765432099 19.488888888888887)"/><use xlink:href="#e" transform="matrix(1,0,0,1,190.66666666666652,70.5) translate(322.4182098765432 19.488888888888887)"/><path d="M262.67 126.5h445v183h-445z" stroke="#282c33" stroke-width="2" fill="#fff"/><path d="M262.67 169.43h445m-445 42.94h445" stroke="#282c33" stroke-width="2" fill="none"/><use xlink:href="#f" transform="matrix(1,0,0,1,270.6666666666665,134.5) translate(145.35864197530867 17.988888888888887)"/><use xlink:href="#g" transform="matrix(1,0,0,1,274.6666666666665,177.43333333333334) translate(0 17.988888888888887)"/><use xlink:href="#h" transform="matrix(1,0,0,1,274.6666666666665,177.43333333333334) translate(13.653703703703702 17.988888888888887)"/><use xlink:href="#i" transform="matrix(1,0,0,1,274.6666666666665,177.43333333333334) translate(153.1833333333333 17.988888888888887)"/><use xlink:href="#j" transform="matrix(1,0,0,1,274.6666666666665,177.43333333333334) translate(165.65246913580245 17.988888888888887)"/><use xlink:href="#k" transform="matrix(1,0,0,1,274.6666666666665,177.43333333333334) translate(296.516049382716 17.988888888888887)"/><use xlink:href="#l" transform="matrix(1,0,0,1,274.6666666666665,220.36666666666667) translate(0 18.05555555555556)"/><use xlink:href="#m" transform="matrix(1,0,0,1,274.6666666666665,220.36666666666667) translate(19.327160493827158 18.05555555555556)"/><use xlink:href="#n" transform="matrix(1,0,0,1,274.6666666666665,220.36666666666667) translate(119.08024691358023 18.05555555555556)"/><use xlink:href="#i" transform="matrix(1,0,0,1,274.6666666666665,220.36666666666667) translate(273.5104938271604 18.05555555555556)"/><use xlink:href="#o" transform="matrix(1,0,0,1,274.6666666666665,220.36666666666667) translate(285.9796296296295 18.05555555555556)"/><use xlink:href="#l" transform="matrix(1,0,0,1,274.6666666666665,220.36666666666667) translate(0 44.988888888888894)"/><use xlink:href="#p" transform="matrix(1,0,0,1,274.6666666666665,220.36666666666667) translate(19.327160493827158 44.988888888888894)"/><use xlink:href="#q" transform="matrix(1,0,0,1,274.6666666666665,220.36666666666667) translate(94.14197530864195 44.988888888888894)"/><use xlink:href="#i" transform="matrix(1,0,0,1,274.6666666666665,220.36666666666667) translate(115.21481481481479 44.988888888888894)"/><use xlink:href="#o" transform="matrix(1,0,0,1,274.6666666666665,220.36666666666667) translate(127.68395061728393 44.988888888888894)"/><use xlink:href="#l" transform="matrix(1,0,0,1,274.6666666666665,220.36666666666667) translate(0 71.92222222222222)"/><use xlink:href="#r" transform="matrix(1,0,0,1,274.6666666666665,220.36666666666667) translate(19.327160493827158 71.92222222222222)"/><use xlink:href="#q" transform="matrix(1,0,0,1,274.6666666666665,220.36666666666667) translate(90.27654320987654 71.92222222222222)"/><use xlink:href="#i" transform="matrix(1,0,0,1,274.6666666666665,220.36666666666667) translate(111.34938271604938 71.92222222222222)"/><use xlink:href="#s" transform="matrix(1,0,0,1,274.6666666666665,220.36666666666667) translate(123.81851851851852 71.92222222222222)"/><path d="M485.17 340.88V355" stroke="#333" fill="none"/><path d="M485.17 311.2l-14.85 14.86 14.85 14.85 14.85-14.84z" stroke="#333" fill="#fff"/><path d="M485.64 355.5h-.95v-.5h.94z" stroke="#333" stroke-width=".05" fill="#333"/><path d="M262.67 356.5h445v156h-445z" stroke="#282c33" stroke-width="2" fill="#fff"/><path d="M262.67 399.43h445m-445 42.94h445" stroke="#282c33" stroke-width="2" fill="none"/><use xlink:href="#t" transform="matrix(1,0,0,1,270.6666666666665,364.5) translate(152.18549382716049 17.988888888888887)"/><use xlink:href="#l" transform="matrix(1,0,0,1,274.6666666666665,407.43333333333334) translate(0 17.988888888888887)"/><use xlink:href="#u" transform="matrix(1,0,0,1,274.6666666666665,407.43333333333334) translate(19.327160493827158 17.988888888888887)"/><use xlink:href="#i" transform="matrix(1,0,0,1,274.6666666666665,407.43333333333334) translate(157.60987654320985 17.988888888888887)"/><use xlink:href="#v" transform="matrix(1,0,0,1,274.6666666666665,407.43333333333334) translate(170.079012345679 17.988888888888887)"/><use xlink:href="#w" transform="matrix(1,0,0,1,274.6666666666665,450.3666666666667) translate(0 18.022222222222222)"/><use xlink:href="#i" transform="matrix(1,0,0,1,274.6666666666665,450.3666666666667) translate(102.74567901234563 18.022222222222222)"/><use xlink:href="#o" transform="matrix(1,0,0,1,274.6666666666665,450.3666666666667) translate(115.21481481481476 18.022222222222222)"/><use xlink:href="#x" transform="matrix(1,0,0,1,274.6666666666665,450.3666666666667) translate(0 44.95555555555555)"/><use xlink:href="#i" transform="matrix(1,0,0,1,274.6666666666665,450.3666666666667) translate(98.88024691358021 44.95555555555555)"/><use xlink:href="#s" transform="matrix(1,0,0,1,274.6666666666665,450.3666666666667) translate(111.34938271604935 44.95555555555555)"/><path d="M262.67 566.5h445v263h-445z" stroke="#282c33" stroke-width="2" fill="#fff"/><path d="M262.67 636.37h445m-445 96.8h445" stroke="#282c33" stroke-width="2" fill="none"/><use xlink:href="#y" transform="matrix(1,0,0,1,270.6666666666665,574.5) translate(161.53734567901236 18.022222222222222)"/><use xlink:href="#z" transform="matrix(1,0,0,1,270.6666666666665,574.5) translate(151.59320987654323 44.95555555555555)"/><use xlink:href="#A" transform="matrix(1,0,0,1,274.6666666666665,644.3666666666667) translate(0 18.05555555555556)"/><use xlink:href="#i" transform="matrix(1,0,0,1,274.6666666666665,644.3666666666667) translate(80.42592592592591 18.05555555555556)"/><use xlink:href="#B" transform="matrix(1,0,0,1,274.6666666666665,644.3666666666667) translate(92.89506172839504 18.05555555555556)"/><use xlink:href="#C" transform="matrix(1,0,0,1,274.6666666666665,644.3666666666667) translate(0 44.988888888888894)"/><use xlink:href="#i" transform="matrix(1,0,0,1,274.6666666666665,644.3666666666667) translate(140.0907407407407 44.988888888888894)"/><use xlink:href="#D" transform="matrix(1,0,0,1,274.6666666666665,644.3666666666667) translate(152.55987654320984 44.988888888888894)"/><use xlink:href="#E" transform="matrix(1,0,0,1,274.6666666666665,644.3666666666667) translate(0 71.92222222222222)"/><use xlink:href="#i" transform="matrix(1,0,0,1,274.6666666666665,644.3666666666667) translate(94.01728395061726 71.92222222222222)"/><use xlink:href="#F" transform="matrix(1,0,0,1,274.6666666666665,644.3666666666667) translate(106.48641975308638 71.92222222222222)"/><use xlink:href="#w" transform="matrix(1,0,0,1,274.6666666666665,741.1666666666666) translate(0 18.05555555555556)"/><use xlink:href="#i" transform="matrix(1,0,0,1,274.6666666666665,741.1666666666666) translate(102.74567901234563 18.05555555555556)"/><use xlink:href="#G" transform="matrix(1,0,0,1,274.6666666666665,741.1666666666666) translate(115.21481481481476 18.05555555555556)"/><use xlink:href="#H" transform="matrix(1,0,0,1,274.6666666666665,741.1666666666666) translate(162.53518518518513 18.05555555555556)"/><use xlink:href="#x" transform="matrix(1,0,0,1,274.6666666666665,741.1666666666666) translate(0 44.988888888888894)"/><use xlink:href="#i" transform="matrix(1,0,0,1,274.6666666666665,741.1666666666666) translate(98.88024691358021 44.988888888888894)"/><use xlink:href="#o" transform="matrix(1,0,0,1,274.6666666666665,741.1666666666666) translate(111.34938271604935 44.988888888888894)"/><use xlink:href="#I" transform="matrix(1,0,0,1,274.6666666666665,741.1666666666666) translate(0 71.92222222222222)"/><use xlink:href="#i" transform="matrix(1,0,0,1,274.6666666666665,741.1666666666666) translate(82.67037037037035 71.92222222222222)"/><use xlink:href="#s" transform="matrix(1,0,0,1,274.6666666666665,741.1666666666666) translate(95.13950617283948 71.92222222222222)"/><path d="M485.17 565v-21.13" stroke="#333" fill="none"/><path d="M485.64 565.5h-.95v-.5h.94z" stroke="#333" stroke-width=".05" fill="#333"/><path d="M485.17 514.2l-14.85 14.86 14.85 14.85 14.85-14.84z" stroke="#333" fill="#333"/><path d="M485.17 860.88V980" stroke="#333" fill="none"/><path d="M485.17 831.2l-14.85 14.86 14.85 14.85 14.85-14.84z" stroke="#333" fill="#333"/><path d="M485.64 980.5h-.95v-.5h.94z" stroke="#333" stroke-width=".05" fill="#333"/><path d="M262.67 981.5h445v240h-445z" stroke="#282c33" stroke-width="2" fill="#fff"/><path d="M262.67 1024.43h445m-445 125.24h445" stroke="#282c33" stroke-width="2" fill="none"/><use xlink:href="#J" transform="matrix(1,0,0,1,270.6666666666665,989.5) translate(149.75401234567903 17.988888888888887)"/><use xlink:href="#K" transform="matrix(1,0,0,1,274.6666666666665,1032.4333333333334) translate(0 19.0888888888889)"/><use xlink:href="#i" transform="matrix(1,0,0,1,274.6666666666665,1032.4333333333334) translate(59.16604938271604 19.0888888888889)"/><use xlink:href="#L" transform="matrix(1,0,0,1,274.6666666666665,1032.4333333333334) translate(71.63518518518518 19.0888888888889)"/><use xlink:href="#M" transform="matrix(1,0,0,1,274.6666666666665,1032.4333333333334) translate(0 46.022222222222226)"/><use xlink:href="#i" transform="matrix(1,0,0,1,274.6666666666665,1032.4333333333334) translate(96.5111111111111 46.022222222222226)"/><use xlink:href="#L" transform="matrix(1,0,0,1,274.6666666666665,1032.4333333333334) translate(108.98024691358023 46.022222222222226)"/><use xlink:href="#N" transform="matrix(1,0,0,1,274.6666666666665,1032.4333333333334) translate(0 72.95555555555556)"/><use xlink:href="#O" transform="matrix(1,0,0,1,274.6666666666665,1032.4333333333334) translate(158.7944444444444 72.95555555555556)"/><use xlink:href="#P" transform="matrix(1,0,0,1,274.6666666666665,1032.4333333333334) translate(0 99.88888888888889)"/><use xlink:href="#i" transform="matrix(1,0,0,1,274.6666666666665,1032.4333333333334) translate(67.83209876543208 99.88888888888889)"/><use xlink:href="#Q" transform="matrix(1,0,0,1,274.6666666666665,1032.4333333333334) translate(80.30123456790122 99.88888888888889)"/><g><use xlink:href="#I" transform="matrix(1,0,0,1,274.6666666666665,1157.6666666666667) translate(0 19.022222222222222)"/><use xlink:href="#i" transform="matrix(1,0,0,1,274.6666666666665,1157.6666666666667) translate(82.67037037037035 19.022222222222222)"/><use xlink:href="#o" transform="matrix(1,0,0,1,274.6666666666665,1157.6666666666667) translate(95.13950617283948 19.022222222222222)"/><use xlink:href="#R" transform="matrix(1,0,0,1,274.6666666666665,1157.6666666666667) translate(0 45.95555555555555)"/><use xlink:href="#i" transform="matrix(1,0,0,1,274.6666666666665,1157.6666666666667) translate(82.67037037037035 45.95555555555555)"/><use xlink:href="#s" transform="matrix(1,0,0,1,274.6666666666665,1157.6666666666667) translate(95.13950617283948 45.95555555555555)"/></g><path d="M902.67 531.5h360v333h-360z" stroke="#282c33" stroke-width="2" fill="#fff"/><path d="M902.67 574.43h360m-360 172.17h360" stroke="#282c33" stroke-width="2" fill="none"/><g><use xlink:href="#S" transform="matrix(1,0,0,1,910.6666666666665,539.5) translate(137.1175925925926 17.988888888888887)"/></g><g><use xlink:href="#T" transform="matrix(1,0,0,1,914.6666666666665,582.4333333333333) translate(79.87438271604941 29.122222222222224)"/><use xlink:href="#i" transform="matrix(1,0,0,1,914.6666666666665,582.4333333333333) translate(186.36080246913582 29.122222222222224)"/><use xlink:href="#U" transform="matrix(1,0,0,1,914.6666666666665,582.4333333333333) translate(198.82993827160493 29.122222222222224)"/><use xlink:href="#V" transform="matrix(1,0,0,1,914.6666666666665,582.4333333333333) translate(247.39722222222218 29.122222222222224)"/><use xlink:href="#l" transform="matrix(1,0,0,1,914.6666666666665,582.4333333333333) translate(62.44876543209878 56.05555555555556)"/><use xlink:href="#W" transform="matrix(1,0,0,1,914.6666666666665,582.4333333333333) translate(81.77592592592595 56.05555555555556)"/><use xlink:href="#i" transform="matrix(1,0,0,1,914.6666666666665,582.4333333333333) translate(203.78641975308642 56.05555555555556)"/><use xlink:href="#U" transform="matrix(1,0,0,1,914.6666666666665,582.4333333333333) translate(216.25555555555556 56.05555555555556)"/><use xlink:href="#V" transform="matrix(1,0,0,1,914.6666666666665,582.4333333333333) translate(264.82283950617284 56.05555555555556)"/><use xlink:href="#l" transform="matrix(1,0,0,1,914.6666666666665,582.4333333333333) translate(111.04722222222223 82.98888888888888)"/><use xlink:href="#X" transform="matrix(1,0,0,1,914.6666666666665,582.4333333333333) translate(130.37438271604938 82.98888888888888)"/><use xlink:href="#i" transform="matrix(1,0,0,1,914.6666666666665,582.4333333333333) translate(170.15092592592592 82.98888888888888)"/><use xlink:href="#Y" transform="matrix(1,0,0,1,914.6666666666665,582.4333333333333) translate(182.62006172839506 82.98888888888888)"/><use xlink:href="#l" transform="matrix(1,0,0,1,914.6666666666665,582.4333333333333) translate(106.62067901234569 109.9222222222222)"/><use xlink:href="#Z" transform="matrix(1,0,0,1,914.6666666666665,582.4333333333333) translate(125.94783950617284 109.9222222222222)"/><use xlink:href="#i" transform="matrix(1,0,0,1,914.6666666666665,582.4333333333333) translate(193.28117283950616 109.9222222222222)"/><use xlink:href="#aa" transform="matrix(1,0,0,1,914.6666666666665,582.4333333333333) translate(205.75030864197532 109.9222222222222)"/><use xlink:href="#l" transform="matrix(1,0,0,1,914.6666666666665,582.4333333333333) translate(70.64722222222225 136.85555555555555)"/><use xlink:href="#ab" transform="matrix(1,0,0,1,914.6666666666665,582.4333333333333) translate(89.9743827160494 136.85555555555555)"/><use xlink:href="#i" transform="matrix(1,0,0,1,914.6666666666665,582.4333333333333) translate(229.25462962962962 136.85555555555555)"/><use xlink:href="#ac" transform="matrix(1,0,0,1,914.6666666666665,582.4333333333333) translate(241.72376543209873 136.85555555555555)"/></g><g><use xlink:href="#l" transform="matrix(1,0,0,1,914.6666666666665,754.5999999999999) translate(83.61512345679014 29.05555555555556)"/><use xlink:href="#p" transform="matrix(1,0,0,1,914.6666666666665,754.5999999999999) translate(102.94228395061731 29.05555555555556)"/><use xlink:href="#q" transform="matrix(1,0,0,1,914.6666666666665,754.5999999999999) translate(177.7570987654321 29.05555555555556)"/><use xlink:href="#i" transform="matrix(1,0,0,1,914.6666666666665,754.5999999999999) translate(198.82993827160493 29.05555555555556)"/><use xlink:href="#o" transform="matrix(1,0,0,1,914.6666666666665,754.5999999999999) translate(211.29907407407407 29.05555555555556)"/><use xlink:href="#l" transform="matrix(1,0,0,1,914.6666666666665,754.5999999999999) translate(31.30709876543213 55.988888888888894)"/><use xlink:href="#ad" transform="matrix(1,0,0,1,914.6666666666665,754.5999999999999) translate(50.63425925925929 55.988888888888894)"/><use xlink:href="#i" transform="matrix(1,0,0,1,914.6666666666665,754.5999999999999) translate(192.533024691358 55.988888888888894)"/><use xlink:href="#L" transform="matrix(1,0,0,1,914.6666666666665,754.5999999999999) translate(205.00216049382715 55.988888888888894)"/><use xlink:href="#l" transform="matrix(1,0,0,1,914.6666666666665,754.5999999999999) translate(46.86234567901238 82.92222222222222)"/><use xlink:href="#ae" transform="matrix(1,0,0,1,914.6666666666665,754.5999999999999) translate(66.18950617283954 82.92222222222222)"/><use xlink:href="#i" transform="matrix(1,0,0,1,914.6666666666665,754.5999999999999) translate(170.7432098765432 82.92222222222222)"/><use xlink:href="#af" transform="matrix(1,0,0,1,914.6666666666665,754.5999999999999) translate(183.21234567901234 82.92222222222222)"/><use xlink:href="#ag" transform="matrix(1,0,0,1,914.6666666666665,754.5999999999999) translate(239.32345679012343 82.92222222222222)"/></g><path d="M709.67 698h4.18m8.37 0h8.37m8.35 0h8.37m8.37 0h8.35m8.37 0h8.37m8.36 0h8.37m8.36 0h8.36m8.37 0H831m8.36 0h8.37m8.37 0h8.37m8.36 0h4.2" stroke="#333" stroke-width="2" fill="none"/><path d="M709.7 698.98h-1.03V697h1.02z" stroke="#333" stroke-width=".05" fill="#333"/><path d="M899.67 698l-21.65 12.5v-25z" stroke="#333" stroke-width="2" fill="#fff"/><path d="M902.67 166h360v104h-360z" stroke="#282c33" stroke-width="2" fill="#fff"/><g><use xlink:href="#ah" transform="matrix(1,0,0,1,910.6666666666665,174) translate(96.00061728395062 48.48888888888889)"/></g><path d="M709.67 218h4.18m8.37 0h8.37m8.35 0h8.37m8.37 0h8.35m8.37 0h8.37m8.36 0h8.37m8.36 0h8.36m8.37 0H831m8.36 0h8.37m8.37 0h8.37m8.36 0h4.2" stroke="#333" stroke-width="2" fill="none"/><path d="M709.7 218.97h-1.03v-1.94h1.02z" stroke="#333" stroke-width=".05" fill="#333"/><path d="M899.67 218l-21.65 12.5v-25z" stroke="#333" stroke-width="2" fill="#fff"/><path d="M1322.67 531.5h360v199h-360z" stroke="#282c33" stroke-width="2" fill="#fff"/><path d="M1322.67 574.43h360m-360 91.37h360" stroke="#282c33" stroke-width="2" fill="none"/><g><use xlink:href="#ai" transform="matrix(1,0,0,1,1330.6666666666665,539.5) translate(153.35864197530864 17.988888888888887)"/></g><g><use xlink:href="#l" transform="matrix(1,0,0,1,1334.6666666666665,582.4333333333333) translate(63.633333333333354 29.022222222222222)"/><use xlink:href="#aj" transform="matrix(1,0,0,1,1334.6666666666665,582.4333333333333) translate(82.96049382716052 29.022222222222222)"/><use xlink:href="#i" transform="matrix(1,0,0,1,1334.6666666666665,582.4333333333333) translate(181.40432098765433 29.022222222222222)"/><use xlink:href="#ak" transform="matrix(1,0,0,1,1334.6666666666665,582.4333333333333) translate(193.87345679012347 29.022222222222222)"/><use xlink:href="#l" transform="matrix(1,0,0,1,1334.6666666666665,582.4333333333333) translate(63.633333333333354 55.95555555555555)"/><use xlink:href="#al" transform="matrix(1,0,0,1,1334.6666666666665,582.4333333333333) translate(82.96049382716052 55.95555555555555)"/><use xlink:href="#i" transform="matrix(1,0,0,1,1334.6666666666665,582.4333333333333) translate(181.40432098765433 55.95555555555555)"/><use xlink:href="#am" transform="matrix(1,0,0,1,1334.6666666666665,582.4333333333333) translate(193.87345679012347 55.95555555555555)"/></g><g><use xlink:href="#l" transform="matrix(1,0,0,1,1334.6666666666665,673.8) translate(86.73240740740744 28.988888888888887)"/><use xlink:href="#an" transform="matrix(1,0,0,1,1334.6666666666665,673.8) translate(106.0595679012346 28.988888888888887)"/><use xlink:href="#i" transform="matrix(1,0,0,1,1334.6666666666665,673.8) translate(195.71265432098764 28.988888888888887)"/><use xlink:href="#s" transform="matrix(1,0,0,1,1334.6666666666665,673.8) translate(208.18179012345678 28.988888888888887)"/></g><path d="M709.67 698h9l1.87.15 1.84.44.87.35m6.47 6.47l.36.87.44 1.82.15 1.88v4.16m0 8.3v8.32m0 8.3v8.33m0 8.32v8.3m0 8.32v8.32m0 8.3v8.32m0 8.3v8.33m0 8.32v8.3m0 8.32v8.32m0 8.3v8.32m0 8.3v8.33m0 8.32v8.3m0 8.32v4.16l.14 1.88.45 1.83.36.88m6.5 6.47l.86.36 1.83.45 1.87.15h3.98m7.95 0h7.96m7.96 0h7.96m7.95 0h7.96m7.95 0h7.95m7.96 0h7.96m7.96 0h7.96m7.95 0h7.95m7.96 0h7.97m7.95 0h7.96m7.96 0h7.95m7.95 0h7.96m7.97 0h7.95m7.96 0h7.96m7.96 0h7.95m7.96 0h7.97m7.96 0h7.95m7.96 0h7.96m7.96 0h7.95m7.97 0h7.96m7.96 0h7.94m7.96 0h7.96m7.96 0h7.95m7.96 0h7.96m7.94 0h7.96m7.96 0h7.96m7.95 0h7.96m7.96 0h7.95m7.96 0h7.96m7.96 0h7.96m7.95 0h7.96m7.95 0h7.96m7.96 0h7.96m7.96 0h7.96m7.95 0h7.95m7.96 0h7.97m7.95 0h7.96m7.96 0h7.96m7.95 0h7.96m7.97 0h7.96m7.95 0h7.96m7.96 0h7.96m7.95 0h7.97m7.96 0h7.96m7.94 0h7.96m7.96 0h7.96m7.95 0h7.96m7.96 0h3.97l1.87-.15 1.84-.44.86-.35m6.48-6.47l.36-.87.44-1.82.15-1.88v-3.83m0-7.67v-7.67m0-7.67V875m0-7.67v-7.67m0-7.67v-7.67m0-7.67V829m0-7.68v-7.66m0-7.67v-7.68m0-7.67V783m0-7.68v-7.67m0-7.67v-3.83" stroke="#333" stroke-width="2" fill="none"/><path d="M709.7 698.98h-1.03V697h1.02z" stroke="#333" stroke-width=".05" fill="#333"/><path d="M1502.67 733.5l12.5 21.65h-25z" stroke="#333" stroke-width="2" fill="#fff"/><path d="M1321.17 631h-16.5a12 12 0 0 0-12 12v43a12 12 0 0 1-12 12h-.62" stroke="#333" fill="none"/><path d="M1321.67 631.48h-.52v-.96h.52z" stroke="#333" stroke-width=".05" fill="#333"/><path d="M1265.3 698l14.25-4.63v9.26z" stroke="#333" fill="#333"/><path d="M902.67 981.5h360v43h-360z" stroke="#282c33" stroke-width="2" fill="#fff"/><g><use xlink:href="#ao" transform="matrix(1,0,0,1,910.6666666666665,989.5) translate(122.80925925925926 17.988888888888887)"/></g><path d="M1302.67 981.5h360v43h-360z" stroke="#282c33" stroke-width="2" fill="#fff"/><g><use xlink:href="#ap" transform="matrix(1,0,0,1,1310.6666666666665,989.5) translate(139.05030864197533 17.988888888888887)"/></g><path d="M1082.67 980v-84.13" stroke="#333" fill="none"/><path d="M1083.14 980.5h-.95v-.5h.94z" stroke="#333" stroke-width=".05" fill="#333"/><path d="M1082.67 866.2l-14.85 14.86 14.85 14.85 14.85-14.84z" stroke="#333" fill="#333"/><path d="M1482.67 980v-8.5a12 12 0 0 1 12-12h68a12 12 0 0 0 12-12V761.87" stroke="#333" fill="none"/><path d="M1483.14 980.5h-.95v-.5h.94z" stroke="#333" stroke-width=".05" fill="#333"/><path d="M1574.67 732.2l-14.85 14.86 14.85 14.85 14.85-14.84z" stroke="#333" fill="#333"/><path d="M709.67 1101.5h3.92m7.84 0h7.85m7.83 0h7.85m7.85 0h7.85m7.85 0h7.84m7.85 0h7.85m7.85 0h7.84m7.85 0h7.86m7.85 0h7.86m7.84 0h7.85m7.85 0h7.85m7.85 0h7.84m7.85 0h7.84m7.85 0h7.83m7.85 0h7.85m7.85 0h7.85m7.84 0h7.85m7.85 0h7.85m7.84 0h7.85m7.86 0h7.85m7.86 0h7.84m7.85 0h7.85m7.85 0h7.85m7.84 0h3.93l1.87-.15 1.84-.44.86-.35m6.48-6.47l.36-.87.44-1.82.15-1.88v-4.92m0-9.84v-9.83m0-9.83v-4.92" stroke="#333" stroke-width="2" fill="none"/><path d="M709.7 1102.47h-1.03v-1.94h1.02z" stroke="#333" stroke-width=".05" fill="#333"/><path d="M1082.67 1027.5l12.5 21.65h-25z" stroke="#333" stroke-width="2" fill="#fff"/><path d="M709.67 1101.5h3.96m7.93 0h7.92m7.93 0h7.94m7.93 0h7.92m7.92 0h7.93m7.92 0h7.93m7.93 0h7.92m7.93 0h7.93m7.94 0h7.92m7.93 0h7.92m7.92 0h7.93m7.93 0h7.93m7.92 0h7.93m7.93 0h7.93m7.93 0h7.93m7.92 0h7.92m7.93 0h7.93m7.92 0h7.93m7.93 0H999m7.93 0h7.93m7.93 0h7.9m7.94 0h7.93m7.92 0h7.92m7.93 0h7.93m7.92 0h7.93m7.93 0h7.92m7.93 0h7.94m7.93 0h7.92m7.92 0h7.93m7.92 0h7.93m7.93 0h7.93m7.92 0h7.93m7.94 0h7.92m7.93 0h7.92m7.92 0h7.93m7.93 0h7.93m7.92 0h7.93m7.93 0h7.93m7.93 0h7.93m7.92 0h7.92m7.93 0h7.93m7.92 0h7.93m7.93 0h7.93m7.93 0h7.93m7.93 0h7.9m7.94 0h7.93m7.92 0h7.92m7.93 0h7.93m7.92 0h3.97l1.87-.15 1.84-.44.86-.35m6.48-6.47l.36-.87.44-1.82.15-1.88v-4.92m0-9.84v-9.83m0-9.83v-4.92" stroke="#333" stroke-width="2" fill="none"/><path d="M709.7 1102.47h-1.03v-1.94h1.02z" stroke="#333" stroke-width=".05" fill="#333"/><path d="M1482.67 1027.5l12.5 21.65h-25z" stroke="#333" stroke-width="2" fill="#fff"/><path d="M902.67 341.5h360v104h-360z" stroke="#282c33" stroke-width="2" fill="#fff"/><g><use xlink:href="#t" transform="matrix(1,0,0,1,910.6666666666665,349.5) translate(109.6854938271605 48.48888888888889)"/></g><path d="M709.67 441.5h9l1.87-.15 1.84-.44.87-.35m6.47-6.47l.36-.87.44-1.82.15-1.88v-3m0-6v-6m0-6v-3l.14-1.88.45-1.83.36-.88m6.5-6.47l.86-.36 1.83-.45 1.87-.15h4.2m8.4 0h8.4m8.4 0h8.38m8.4 0h8.4m8.4 0h8.4m8.4 0h8.38m8.4 0h8.4m8.4 0h8.4m8.4 0h4.2" stroke="#333" stroke-width="2" fill="none"/><path d="M709.7 442.48h-1.03v-1.96h1.02z" stroke="#333" stroke-width=".05" fill="#333"/><path d="M899.67 393.5L878.02 406v-25z" stroke="#333" stroke-width="2" fill="#fff"/><path d="M1082.67 530v-53.13" stroke="#333" fill="none"/><path d="M1083.14 530.5h-.95v-.5h.94z" stroke="#333" stroke-width=".05" fill="#333"/><path d="M1082.67 447.2l-14.85 14.86 14.85 14.85 14.85-14.84z" stroke="#333" fill="#333"/><path d="M1502.67 530V405.5a12 12 0 0 0-12-12h-196.63" stroke="#333" fill="none"/><path d="M1503.14 530.5h-.95v-.5h.94z" stroke="#333" stroke-width=".05" fill="#333"/><path d="M1264.37 393.5l14.85 14.85 14.85-14.85-14.85-14.85z" stroke="#333" fill="#333"/><path d="M1082.67 340v-38.63" stroke="#333" fill="none"/><path d="M1083.14 340.5h-.95v-.5h.94z" stroke="#333" stroke-width=".05" fill="#333"/><path d="M1082.67 271.7l-14.85 14.86 14.85 14.85 14.85-14.84z" stroke="#333" fill="#333"/><defs><path fill="#282c33" d="M30-248c87 1 191-15 191 75 0 78-77 80-158 76V0H30v-248zm33 125c57 0 124 11 124-50 0-59-68-47-124-48v98" id="aq"/><path fill="#282c33" d="M100-194c62-1 85 37 85 99 1 63-27 99-86 99S16-35 15-95c0-66 28-99 85-99zM99-20c44 1 53-31 53-75 0-43-8-75-51-75s-53 32-53 75 10 74 51 75" id="ar"/><path fill="#282c33" d="M117-194c89-4 53 116 60 194h-32v-121c0-31-8-49-39-48C34-167 62-67 57 0H25l-1-190h30c1 10-1 24 2 32 11-22 29-35 61-36" id="as"/><path fill="#282c33" d="M177-190C167-65 218 103 67 71c-23-6-38-20-44-43l32-5c15 47 100 32 89-28v-30C133-14 115 1 83 1 29 1 15-40 15-95c0-56 16-97 71-98 29-1 48 16 59 35 1-10 0-23 2-32h30zM94-22c36 0 50-32 50-73 0-42-14-75-50-75-39 0-46 34-46 75s6 73 46 73" id="at"/><g id="a"><use transform="matrix(0.06234567901234567,0,0,0.06234567901234567,0,0)" xlink:href="#aq"/><use transform="matrix(0.06234567901234567,0,0,0.06234567901234567,14.96296296296296,0)" xlink:href="#ar"/><use transform="matrix(0.06234567901234567,0,0,0.06234567901234567,27.432098765432094,0)" xlink:href="#as"/><use transform="matrix(0.06234567901234567,0,0,0.06234567901234567,39.90123456790123,0)" xlink:href="#at"/></g><path fill="#282c33" d="M24-231v-30h32v30H24zM24 0v-190h32V0H24" id="au"/><path fill="#282c33" d="M210-169c-67 3-38 105-44 169h-31v-121c0-29-5-50-35-48C34-165 62-65 56 0H25l-1-190h30c1 10-1 24 2 32 10-44 99-50 107 0 11-21 27-35 58-36 85-2 47 119 55 194h-31v-121c0-29-5-49-35-48" id="av"/><path fill="#282c33" d="M115-194c55 1 70 41 70 98S169 2 115 4C84 4 66-9 55-30l1 105H24l-1-265h31l2 30c10-21 28-34 59-34zm-8 174c40 0 45-34 45-75s-6-73-45-74c-42 0-51 32-51 76 0 43 10 73 51 73" id="aw"/><path fill="#282c33" d="M24 0v-261h32V0H24" id="ax"/><path fill="#282c33" d="M100-194c63 0 86 42 84 106H49c0 40 14 67 53 68 26 1 43-12 49-29l28 8c-11 28-37 45-77 45C44 4 14-33 15-96c1-61 26-98 85-98zm52 81c6-60-76-77-97-28-3 7-6 17-6 28h103" id="ay"/><path fill="#282c33" d="M59-47c-2 24 18 29 38 22v24C64 9 27 4 27-40v-127H5v-23h24l9-43h21v43h35v23H59v120" id="az"/><path fill="#282c33" d="M141-36C126-15 110 5 73 4 37 3 15-17 15-53c-1-64 63-63 125-63 3-35-9-54-41-54-24 1-41 7-42 31l-33-3c5-37 33-52 76-52 45 0 72 20 72 64v82c-1 20 7 32 28 27v20c-31 9-61-2-59-35zM48-53c0 20 12 33 32 33 41-3 63-29 60-74-43 2-92-5-92 41" id="aA"/><g id="b"><use transform="matrix(0.06234567901234567,0,0,0.06234567901234567,0,0)" xlink:href="#au"/><use transform="matrix(0.06234567901234567,0,0,0.06234567901234567,4.925308641975308,0)" xlink:href="#av"/><use transform="matrix(0.06234567901234567,0,0,0.06234567901234567,23.566666666666663,0)" xlink:href="#aw"/><use transform="matrix(0.06234567901234567,0,0,0.06234567901234567,36.035802469135795,0)" xlink:href="#ax"/><use transform="matrix(0.06234567901234567,0,0,0.06234567901234567,40.9611111111111,0)" xlink:href="#ay"/><use transform="matrix(0.06234567901234567,0,0,0.06234567901234567,53.430246913580234,0)" xlink:href="#av"/><use transform="matrix(0.06234567901234567,0,0,0.06234567901234567,72.07160493827159,0)" xlink:href="#ay"/><use transform="matrix(0.06234567901234567,0,0,0.06234567901234567,84.54074074074072,0)" xlink:href="#as"/><use transform="matrix(0.06234567901234567,0,0,0.06234567901234567,97.00987654320986,0)" xlink:href="#az"/><use transform="matrix(0.06234567901234567,0,0,0.06234567901234567,103.24444444444443,0)" xlink:href="#aA"/><use transform="matrix(0.06234567901234567,0,0,0.06234567901234567,115.71358024691355,0)" xlink:href="#az"/><use transform="matrix(0.06234567901234567,0,0,0.06234567901234567,121.94814814814812,0)" xlink:href="#au"/><use transform="matrix(0.06234567901234567,0,0,0.06234567901234567,126.87345679012343,0)" xlink:href="#ar"/><use transform="matrix(0.06234567901234567,0,0,0.06234567901234567,139.34259259259255,0)" xlink:href="#as"/></g><g id="c"><use transform="matrix(0.06234567901234567,0,0,0.06234567901234567,0,0)" xlink:href="#ar"/><use transform="matrix(0.06234567901234567,0,0,0.06234567901234567,12.469135802469133,0)" xlink:href="#as"/></g><g id="d"><use transform="matrix(0.06234567901234567,0,0,0.06234567901234567,0,0)" xlink:href="#at"/><use transform="matrix(0.06234567901234567,0,0,0.06234567901234567,12.469135802469133,0)" xlink:href="#aA"/><use transform="matrix(0.06234567901234567,0,0,0.06234567901234567,24.938271604938265,0)" xlink:href="#av"/><use transform="matrix(0.06234567901234567,0,0,0.06234567901234567,43.57962962962962,0)" xlink:href="#ay"/></g><g id="e"><use transform="matrix(0.06234567901234567,0,0,0.06234567901234567,0,0)" xlink:href="#ay"/><use transform="matrix(0.06234567901234567,0,0,0.06234567901234567,12.469135802469133,0)" xlink:href="#as"/><use transform="matrix(0.06234567901234567,0,0,0.06234567901234567,24.938271604938265,0)" xlink:href="#at"/><use transform="matrix(0.06234567901234567,0,0,0.06234567901234567,37.4074074074074,0)" xlink:href="#au"/><use transform="matrix(0.06234567901234567,0,0,0.06234567901234567,42.332716049382704,0)" xlink:href="#as"/><use transform="matrix(0.06234567901234567,0,0,0.06234567901234567,54.801851851851836,0)" xlink:href="#ay"/></g><path fill="#282c33" d="M143 4C61 4 22-44 18-125c-5-107 100-154 193-111 17 8 29 25 37 43l-32 9c-13-25-37-40-76-40-61 0-88 39-88 99 0 61 29 100 91 101 35 0 62-11 79-27v-45h-74v-28h105v86C228-13 192 4 143 4" id="aB"/><path fill="#282c33" d="M212-179c-10-28-35-45-73-45-59 0-87 40-87 99 0 60 29 101 89 101 43 0 62-24 78-52l27 14C228-24 195 4 139 4 59 4 22-46 18-125c-6-104 99-153 187-111 19 9 31 26 39 46" id="aC"/><path fill="#282c33" d="M141 0L90-78 38 0H4l68-98-65-92h35l48 74 47-74h35l-64 92 68 98h-35" id="aD"/><g id="f"><use transform="matrix(0.06234567901234567,0,0,0.06234567901234567,0,0)" xlink:href="#aB"/><use transform="matrix(0.06234567901234567,0,0,0.06234567901234567,17.456790123456788,0)" xlink:href="#aA"/><use transform="matrix(0.06234567901234567,0,0,0.06234567901234567,29.92592592592592,0)" xlink:href="#av"/><use transform="matrix(0.06234567901234567,0,0,0.06234567901234567,48.56728395061727,0)" xlink:href="#ay"/><use transform="matrix(0.06234567901234567,0,0,0.06234567901234567,61.036419753086406,0)" xlink:href="#aC"/><use transform="matrix(0.06234567901234567,0,0,0.06234567901234567,77.18395061728393,0)" xlink:href="#ar"/><use transform="matrix(0.06234567901234567,0,0,0.06234567901234567,89.65308641975307,0)" xlink:href="#as"/><use transform="matrix(0.06234567901234567,0,0,0.06234567901234567,102.1222222222222,0)" xlink:href="#az"/><use transform="matrix(0.06234567901234567,0,0,0.06234567901234567,108.35679012345678,0)" xlink:href="#ay"/><use transform="matrix(0.06234567901234567,0,0,0.06234567901234567,120.8259259259259,0)" xlink:href="#aD"/><use transform="matrix(0.06234567901234567,0,0,0.06234567901234567,132.04814814814813,0)" xlink:href="#az"/></g><path fill="#282c33" d="M16-82v-28h88v28H16" id="aE"/><use transform="matrix(0.06234567901234567,0,0,0.06234567901234567,0,0)" xlink:href="#aE" id="g"/><path fill="#282c33" d="M96-169c-40 0-48 33-48 73s9 75 48 75c24 0 41-14 43-38l32 2c-6 37-31 61-74 61-59 0-76-41-82-99-10-93 101-131 147-64 4 7 5 14 7 22l-32 3c-4-21-16-35-41-35" id="aF"/><path fill="#282c33" d="M84 4C-5 8 30-112 23-190h32v120c0 31 7 50 39 49 72-2 45-101 50-169h31l1 190h-30c-1-10 1-25-2-33-11 22-28 36-60 37" id="aG"/><path fill="#282c33" d="M114-163C36-179 61-72 57 0H25l-1-190h30c1 12-1 29 2 39 6-27 23-49 58-41v29" id="aH"/><path fill="#282c33" d="M185-189c-5-48-123-54-124 2 14 75 158 14 163 119 3 78-121 87-175 55-17-10-28-26-33-46l33-7c5 56 141 63 141-1 0-78-155-14-162-118-5-82 145-84 179-34 5 7 8 16 11 25" id="aI"/><g id="h"><use transform="matrix(0.06234567901234567,0,0,0.06234567901234567,0,0)" xlink:href="#aF"/><use transform="matrix(0.06234567901234567,0,0,0.06234567901234567,11.22222222222222,0)" xlink:href="#aG"/><use transform="matrix(0.06234567901234567,0,0,0.06234567901234567,23.691358024691354,0)" xlink:href="#aH"/><use transform="matrix(0.06234567901234567,0,0,0.06234567901234567,31.11049382716049,0)" xlink:href="#aH"/><use transform="matrix(0.06234567901234567,0,0,0.06234567901234567,38.529629629629625,0)" xlink:href="#ay"/><use transform="matrix(0.06234567901234567,0,0,0.06234567901234567,50.99876543209876,0)" xlink:href="#as"/><use transform="matrix(0.06234567901234567,0,0,0.06234567901234567,63.46790123456789,0)" xlink:href="#az"/><use transform="matrix(0.06234567901234567,0,0,0.06234567901234567,69.70246913580246,0)" xlink:href="#aI"/><use transform="matrix(0.06234567901234567,0,0,0.06234567901234567,84.66543209876542,0)" xlink:href="#aF"/><use transform="matrix(0.06234567901234567,0,0,0.06234567901234567,95.88765432098764,0)" xlink:href="#ay"/><use transform="matrix(0.06234567901234567,0,0,0.06234567901234567,108.35679012345676,0)" xlink:href="#as"/><use transform="matrix(0.06234567901234567,0,0,0.06234567901234567,120.8259259259259,0)" xlink:href="#ay"/></g><path fill="#282c33" d="M33-154v-36h34v36H33zM33 0v-36h34V0H33" id="aJ"/><use transform="matrix(0.06234567901234567,0,0,0.06234567901234567,0,0)" xlink:href="#aJ" id="i"/><g id="j"><use transform="matrix(0.06234567901234567,0,0,0.06234567901234567,0,0)" xlink:href="#aB"/><use transform="matrix(0.06234567901234567,0,0,0.06234567901234567,17.456790123456788,0)" xlink:href="#aA"/><use transform="matrix(0.06234567901234567,0,0,0.06234567901234567,29.92592592592592,0)" xlink:href="#av"/><use transform="matrix(0.06234567901234567,0,0,0.06234567901234567,48.56728395061727,0)" xlink:href="#ay"/><use transform="matrix(0.06234567901234567,0,0,0.06234567901234567,61.036419753086406,0)" xlink:href="#aI"/><use transform="matrix(0.06234567901234567,0,0,0.06234567901234567,75.99938271604937,0)" xlink:href="#aF"/><use transform="matrix(0.06234567901234567,0,0,0.06234567901234567,87.22160493827158,0)" xlink:href="#ay"/><use transform="matrix(0.06234567901234567,0,0,0.06234567901234567,99.69074074074072,0)" xlink:href="#as"/><use transform="matrix(0.06234567901234567,0,0,0.06234567901234567,112.15987654320986,0)" xlink:href="#ay"/></g><path fill="#282c33" d="M80-196l47-18 7 23-49 13 32 44-20 13-27-46-27 45-21-12 33-44-49-13 8-23 47 19-2-53h23" id="aK"/><use transform="matrix(0.06234567901234567,0,0,0.06234567901234567,0,0)" xlink:href="#aK" id="k"/><path fill="#282c33" d="M118-107v75H92v-75H18v-26h74v-75h26v75h74v26h-74" id="aL"/><use transform="matrix(0.06234567901234567,0,0,0.06234567901234567,0,0)" xlink:href="#aL" id="l"/><path fill="#282c33" d="M135-143c-3-34-86-38-87 0 15 53 115 12 119 90S17 21 10-45l28-5c4 36 97 45 98 0-10-56-113-15-118-90-4-57 82-63 122-42 12 7 21 19 24 35" id="aM"/><g id="m"><use transform="matrix(0.06234567901234567,0,0,0.06234567901234567,0,0)" xlink:href="#aM"/><use transform="matrix(0.06234567901234567,0,0,0.06234567901234567,11.22222222222222,0)" xlink:href="#ay"/><use transform="matrix(0.06234567901234567,0,0,0.06234567901234567,23.691358024691354,0)" xlink:href="#az"/><use transform="matrix(0.06234567901234567,0,0,0.06234567901234567,29.92592592592592,0)" xlink:href="#aI"/><use transform="matrix(0.06234567901234567,0,0,0.06234567901234567,44.88888888888888,0)" xlink:href="#aF"/><use transform="matrix(0.06234567901234567,0,0,0.06234567901234567,56.1111111111111,0)" xlink:href="#ay"/><use transform="matrix(0.06234567901234567,0,0,0.06234567901234567,68.58024691358023,0)" xlink:href="#as"/><use transform="matrix(0.06234567901234567,0,0,0.06234567901234567,81.04938271604937,0)" xlink:href="#ay"/></g><path fill="#282c33" d="M87 75C49 33 22-17 22-94c0-76 28-126 65-167h31c-38 41-64 92-64 168S80 34 118 75H87" id="aN"/><path fill="#282c33" d="M33-261c38 41 65 92 65 168S71 34 33 75H2C39 34 66-17 66-93S39-220 2-261h31" id="aO"/><g id="n"><use transform="matrix(0.06234567901234567,0,0,0.06234567901234567,0,0)" xlink:href="#aN"/><use transform="matrix(0.06234567901234567,0,0,0.06234567901234567,7.4191358024691345,0)" xlink:href="#aB"/><use transform="matrix(0.06234567901234567,0,0,0.06234567901234567,24.875925925925923,0)" xlink:href="#aA"/><use transform="matrix(0.06234567901234567,0,0,0.06234567901234567,37.34506172839505,0)" xlink:href="#av"/><use transform="matrix(0.06234567901234567,0,0,0.06234567901234567,55.98641975308641,0)" xlink:href="#ay"/><use transform="matrix(0.06234567901234567,0,0,0.06234567901234567,68.45555555555555,0)" xlink:href="#aI"/><use transform="matrix(0.06234567901234567,0,0,0.06234567901234567,83.41851851851851,0)" xlink:href="#aF"/><use transform="matrix(0.06234567901234567,0,0,0.06234567901234567,94.64074074074072,0)" xlink:href="#ay"/><use transform="matrix(0.06234567901234567,0,0,0.06234567901234567,107.10987654320985,0)" xlink:href="#as"/><use transform="matrix(0.06234567901234567,0,0,0.06234567901234567,119.57901234567899,0)" xlink:href="#ay"/><use transform="matrix(0.06234567901234567,0,0,0.06234567901234567,132.04814814814813,0)" xlink:href="#aK"/><use transform="matrix(0.06234567901234567,0,0,0.06234567901234567,140.77654320987654,0)" xlink:href="#aO"/></g><path fill="#282c33" d="M108 0H70L1-190h34L89-25l56-165h34" id="aP"/><path fill="#282c33" d="M85-194c31 0 48 13 60 33l-1-100h32l1 261h-30c-2-10 0-23-3-31C134-8 116 4 85 4 32 4 16-35 15-94c0-66 23-100 70-100zm9 24c-40 0-46 34-46 75 0 40 6 74 45 74 42 0 51-32 51-76 0-42-9-74-50-73" id="aQ"/><g id="o"><use transform="matrix(0.06234567901234567,0,0,0.06234567901234567,0,0)" xlink:href="#aP"/><use transform="matrix(0.06234567901234567,0,0,0.06234567901234567,11.22222222222222,0)" xlink:href="#ar"/><use transform="matrix(0.06234567901234567,0,0,0.06234567901234567,23.691358024691354,0)" xlink:href="#au"/><use transform="matrix(0.06234567901234567,0,0,0.06234567901234567,28.61666666666666,0)" xlink:href="#aQ"/></g><g id="p"><use transform="matrix(0.06234567901234567,0,0,0.06234567901234567,0,0)" xlink:href="#aG"/><use transform="matrix(0.06234567901234567,0,0,0.06234567901234567,12.469135802469133,0)" xlink:href="#aw"/><use transform="matrix(0.06234567901234567,0,0,0.06234567901234567,24.938271604938265,0)" xlink:href="#aQ"/><use transform="matrix(0.06234567901234567,0,0,0.06234567901234567,37.4074074074074,0)" xlink:href="#aA"/><use transform="matrix(0.06234567901234567,0,0,0.06234567901234567,49.87654320987653,0)" xlink:href="#az"/><use transform="matrix(0.06234567901234567,0,0,0.06234567901234567,56.1111111111111,0)" xlink:href="#ay"/></g><g id="q"><use transform="matrix(0.06234567901234567,0,0,0.06234567901234567,0,0)" xlink:href="#aN"/><use transform="matrix(0.06234567901234567,0,0,0.06234567901234567,7.4191358024691345,0)" xlink:href="#aO"/></g><g id="r"><use transform="matrix(0.06234567901234567,0,0,0.06234567901234567,0,0)" xlink:href="#aH"/><use transform="matrix(0.06234567901234567,0,0,0.06234567901234567,7.4191358024691345,0)" xlink:href="#ay"/><use transform="matrix(0.06234567901234567,0,0,0.06234567901234567,19.888271604938268,0)" xlink:href="#as"/><use transform="matrix(0.06234567901234567,0,0,0.06234567901234567,32.3574074074074,0)" xlink:href="#aQ"/><use transform="matrix(0.06234567901234567,0,0,0.06234567901234567,44.82654320987653,0)" xlink:href="#ay"/><use transform="matrix(0.06234567901234567,0,0,0.06234567901234567,57.295679012345666,0)" xlink:href="#aH"/></g><g id="s"><use transform="matrix(0.06234567901234567,0,0,0.06234567901234567,0,0)" xlink:href="#aP"/><use transform="matrix(0.06234567901234567,0,0,0.06234567901234567,11.22222222222222,0)" xlink:href="#ar"/><use transform="matrix(0.06234567901234567,0,0,0.06234567901234567,23.691358024691354,0)" xlink:href="#au"/><use transform="matrix(0.06234567901234567,0,0,0.06234567901234567,28.61666666666666,0)" xlink:href="#aQ"/></g><g id="t"><use transform="matrix(0.06234567901234567,0,0,0.06234567901234567,0,0)" xlink:href="#aB"/><use transform="matrix(0.06234567901234567,0,0,0.06234567901234567,17.456790123456788,0)" xlink:href="#aA"/><use transform="matrix(0.06234567901234567,0,0,0.06234567901234567,29.92592592592592,0)" xlink:href="#av"/><use transform="matrix(0.06234567901234567,0,0,0.06234567901234567,48.56728395061727,0)" xlink:href="#ay"/><use transform="matrix(0.06234567901234567,0,0,0.06234567901234567,61.036419753086406,0)" xlink:href="#aI"/><use transform="matrix(0.06234567901234567,0,0,0.06234567901234567,75.99938271604937,0)" xlink:href="#aF"/><use transform="matrix(0.06234567901234567,0,0,0.06234567901234567,87.22160493827158,0)" xlink:href="#ay"/><use transform="matrix(0.06234567901234567,0,0,0.06234567901234567,99.69074074074072,0)" xlink:href="#as"/><use transform="matrix(0.06234567901234567,0,0,0.06234567901234567,112.15987654320986,0)" xlink:href="#ay"/></g><path fill="#282c33" d="M140-251c81 0 123 46 123 126C263-46 219 4 140 4 59 4 17-45 17-125s42-126 123-126zm0 227c63 0 89-41 89-101s-29-99-89-99c-61 0-89 39-89 99S79-25 140-24" id="aR"/><path fill="#282c33" d="M115-194c53 0 69 39 70 98 0 66-23 100-70 100C84 3 66-7 56-30L54 0H23l1-261h32v101c10-23 28-34 59-34zm-8 174c40 0 45-34 45-75 0-40-5-75-45-74-42 0-51 32-51 76 0 43 10 73 51 73" id="aS"/><path fill="#282c33" d="M24-231v-30h32v30H24zM-9 49c24 4 33-6 33-30v-209h32V24c2 40-23 58-65 49V49" id="aT"/><g id="u"><use transform="matrix(0.06234567901234567,0,0,0.06234567901234567,0,0)" xlink:href="#at"/><use transform="matrix(0.06234567901234567,0,0,0.06234567901234567,12.469135802469133,0)" xlink:href="#aA"/><use transform="matrix(0.06234567901234567,0,0,0.06234567901234567,24.938271604938265,0)" xlink:href="#av"/><use transform="matrix(0.06234567901234567,0,0,0.06234567901234567,43.57962962962962,0)" xlink:href="#ay"/><use transform="matrix(0.06234567901234567,0,0,0.06234567901234567,56.048765432098755,0)" xlink:href="#aR"/><use transform="matrix(0.06234567901234567,0,0,0.06234567901234567,73.50555555555555,0)" xlink:href="#aS"/><use transform="matrix(0.06234567901234567,0,0,0.06234567901234567,85.97469135802467,0)" xlink:href="#aT"/><use transform="matrix(0.06234567901234567,0,0,0.06234567901234567,90.89999999999998,0)" xlink:href="#ay"/><use transform="matrix(0.06234567901234567,0,0,0.06234567901234567,103.36913580246912,0)" xlink:href="#aF"/><use transform="matrix(0.06234567901234567,0,0,0.06234567901234567,114.59135802469133,0)" xlink:href="#az"/><use transform="matrix(0.06234567901234567,0,0,0.06234567901234567,120.8259259259259,0)" xlink:href="#aM"/></g><path fill="#282c33" d="M18-100v-36l175-74v27L42-118l151 64v27" id="aU"/><path fill="#282c33" d="M18-27v-27l151-64-151-65v-27l175 74v36" id="aV"/><g id="v"><use transform="matrix(0.06234567901234567,0,0,0.06234567901234567,0,0)" xlink:href="#aP"/><use transform="matrix(0.06234567901234567,0,0,0.06234567901234567,11.22222222222222,0)" xlink:href="#ay"/><use transform="matrix(0.06234567901234567,0,0,0.06234567901234567,23.691358024691354,0)" xlink:href="#aF"/><use transform="matrix(0.06234567901234567,0,0,0.06234567901234567,34.913580246913575,0)" xlink:href="#az"/><use transform="matrix(0.06234567901234567,0,0,0.06234567901234567,41.14814814814814,0)" xlink:href="#ar"/><use transform="matrix(0.06234567901234567,0,0,0.06234567901234567,53.61728395061727,0)" xlink:href="#aH"/><use transform="matrix(0.06234567901234567,0,0,0.06234567901234567,61.036419753086406,0)" xlink:href="#aU"/><use transform="matrix(0.06234567901234567,0,0,0.06234567901234567,74.129012345679,0)" xlink:href="#aB"/><use transform="matrix(0.06234567901234567,0,0,0.06234567901234567,91.58580246913579,0)" xlink:href="#aA"/><use transform="matrix(0.06234567901234567,0,0,0.06234567901234567,104.05493827160493,0)" xlink:href="#av"/><use transform="matrix(0.06234567901234567,0,0,0.06234567901234567,122.69629629629628,0)" xlink:href="#ay"/><use transform="matrix(0.06234567901234567,0,0,0.06234567901234567,135.16543209876542,0)" xlink:href="#aR"/><use transform="matrix(0.06234567901234567,0,0,0.06234567901234567,152.6222222222222,0)" xlink:href="#aS"/><use transform="matrix(0.06234567901234567,0,0,0.06234567901234567,165.09135802469135,0)" xlink:href="#aT"/><use transform="matrix(0.06234567901234567,0,0,0.06234567901234567,170.01666666666665,0)" xlink:href="#ay"/><use transform="matrix(0.06234567901234567,0,0,0.06234567901234567,182.4858024691358,0)" xlink:href="#aF"/><use transform="matrix(0.06234567901234567,0,0,0.06234567901234567,193.70802469135802,0)" xlink:href="#az"/><use transform="matrix(0.06234567901234567,0,0,0.06234567901234567,199.94259259259258,0)" xlink:href="#aM"/><use transform="matrix(0.06234567901234567,0,0,0.06234567901234567,211.1648148148148,0)" xlink:href="#aK"/><use transform="matrix(0.06234567901234567,0,0,0.06234567901234567,219.8932098765432,0)" xlink:href="#aV"/></g><g id="w"><use transform="matrix(0.06234567901234567,0,0,0.06234567901234567,0,0)" xlink:href="#aL"/><use transform="matrix(0.06234567901234567,0,0,0.06234567901234567,13.09259259259259,0)" xlink:href="#aG"/><use transform="matrix(0.06234567901234567,0,0,0.06234567901234567,25.56172839506172,0)" xlink:href="#aw"/><use transform="matrix(0.06234567901234567,0,0,0.06234567901234567,38.03086419753085,0)" xlink:href="#aQ"/><use transform="matrix(0.06234567901234567,0,0,0.06234567901234567,50.499999999999986,0)" xlink:href="#aA"/><use transform="matrix(0.06234567901234567,0,0,0.06234567901234567,62.96913580246912,0)" xlink:href="#az"/><use transform="matrix(0.06234567901234567,0,0,0.06234567901234567,69.20370370370368,0)" xlink:href="#ay"/><use transform="matrix(0.06234567901234567,0,0,0.06234567901234567,81.6728395061728,0)" xlink:href="#aN"/><use transform="matrix(0.06234567901234567,0,0,0.06234567901234567,89.09197530864193,0)" xlink:href="#aO"/></g><g id="x"><use transform="matrix(0.06234567901234567,0,0,0.06234567901234567,0,0)" xlink:href="#aL"/><use transform="matrix(0.06234567901234567,0,0,0.06234567901234567,13.09259259259259,0)" xlink:href="#aH"/><use transform="matrix(0.06234567901234567,0,0,0.06234567901234567,20.511728395061724,0)" xlink:href="#ay"/><use transform="matrix(0.06234567901234567,0,0,0.06234567901234567,32.980864197530856,0)" xlink:href="#as"/><use transform="matrix(0.06234567901234567,0,0,0.06234567901234567,45.44999999999999,0)" xlink:href="#aQ"/><use transform="matrix(0.06234567901234567,0,0,0.06234567901234567,57.91913580246912,0)" xlink:href="#ay"/><use transform="matrix(0.06234567901234567,0,0,0.06234567901234567,70.38827160493825,0)" xlink:href="#aH"/><use transform="matrix(0.06234567901234567,0,0,0.06234567901234567,77.80740740740738,0)" xlink:href="#aN"/><use transform="matrix(0.06234567901234567,0,0,0.06234567901234567,85.22654320987651,0)" xlink:href="#aO"/></g><g id="y"><use transform="matrix(0.06234567901234567,0,0,0.06234567901234567,0,0)" xlink:href="#aU"/><use transform="matrix(0.06234567901234567,0,0,0.06234567901234567,13.09259259259259,0)" xlink:href="#aA"/><use transform="matrix(0.06234567901234567,0,0,0.06234567901234567,25.56172839506172,0)" xlink:href="#aS"/><use transform="matrix(0.06234567901234567,0,0,0.06234567901234567,38.03086419753085,0)" xlink:href="#aM"/><use transform="matrix(0.06234567901234567,0,0,0.06234567901234567,49.253086419753075,0)" xlink:href="#az"/><use transform="matrix(0.06234567901234567,0,0,0.06234567901234567,55.487654320987644,0)" xlink:href="#aH"/><use transform="matrix(0.06234567901234567,0,0,0.06234567901234567,62.90679012345678,0)" xlink:href="#aA"/><use transform="matrix(0.06234567901234567,0,0,0.06234567901234567,75.37592592592591,0)" xlink:href="#aF"/><use transform="matrix(0.06234567901234567,0,0,0.06234567901234567,86.59814814814813,0)" xlink:href="#az"/><use transform="matrix(0.06234567901234567,0,0,0.06234567901234567,92.8327160493827,0)" xlink:href="#aV"/></g><g id="z"><use transform="matrix(0.06234567901234567,0,0,0.06234567901234567,0,0)" xlink:href="#aB"/><use transform="matrix(0.06234567901234567,0,0,0.06234567901234567,17.456790123456788,0)" xlink:href="#aA"/><use transform="matrix(0.06234567901234567,0,0,0.06234567901234567,29.92592592592592,0)" xlink:href="#av"/><use transform="matrix(0.06234567901234567,0,0,0.06234567901234567,48.56728395061727,0)" xlink:href="#ay"/><use transform="matrix(0.06234567901234567,0,0,0.06234567901234567,61.036419753086406,0)" xlink:href="#aR"/><use transform="matrix(0.06234567901234567,0,0,0.06234567901234567,78.49320987654319,0)" xlink:href="#aS"/><use transform="matrix(0.06234567901234567,0,0,0.06234567901234567,90.96234567901232,0)" xlink:href="#aT"/><use transform="matrix(0.06234567901234567,0,0,0.06234567901234567,95.88765432098762,0)" xlink:href="#ay"/><use transform="matrix(0.06234567901234567,0,0,0.06234567901234567,108.35679012345676,0)" xlink:href="#aF"/><use transform="matrix(0.06234567901234567,0,0,0.06234567901234567,119.57901234567898,0)" xlink:href="#az"/></g><path fill="#282c33" d="M106-169C34-169 62-67 57 0H25v-261h32l-1 103c12-21 28-36 61-36 89 0 53 116 60 194h-32v-121c2-32-8-49-39-48" id="aW"/><g id="A"><use transform="matrix(0.06234567901234567,0,0,0.06234567901234567,0,0)" xlink:href="#aL"/><use transform="matrix(0.06234567901234567,0,0,0.06234567901234567,13.09259259259259,0)" xlink:href="#aM"/><use transform="matrix(0.06234567901234567,0,0,0.06234567901234567,24.31481481481481,0)" xlink:href="#aW"/><use transform="matrix(0.06234567901234567,0,0,0.06234567901234567,36.78395061728394,0)" xlink:href="#aA"/><use transform="matrix(0.06234567901234567,0,0,0.06234567901234567,49.253086419753075,0)" xlink:href="#aw"/><use transform="matrix(0.06234567901234567,0,0,0.06234567901234567,61.72222222222221,0)" xlink:href="#ay"/></g><path fill="#282c33" d="M233-177c-1 41-23 64-60 70L243 0h-38l-65-103H63V0H30v-248c88 3 205-21 203 71zM63-129c60-2 137 13 137-47 0-61-80-42-137-45v92" id="aX"/><path fill="#282c33" d="M101-251c82-7 93 87 43 132L82-64C71-53 59-42 53-27h129V0H18c2-99 128-94 128-182 0-28-16-43-45-43s-46 15-49 41l-32-3c6-41 34-60 81-64" id="aY"/><path fill="#282c33" d="M30-248c118-7 216 8 213 122C240-48 200 0 122 0H30v-248zM63-27c89 8 146-16 146-99s-60-101-146-95v194" id="aZ"/><g id="B"><use transform="matrix(0.06234567901234567,0,0,0.06234567901234567,0,0)" xlink:href="#aX"/><use transform="matrix(0.06234567901234567,0,0,0.06234567901234567,16.147530864197527,0)" xlink:href="#ay"/><use transform="matrix(0.06234567901234567,0,0,0.06234567901234567,28.61666666666666,0)" xlink:href="#aF"/><use transform="matrix(0.06234567901234567,0,0,0.06234567901234567,39.83888888888888,0)" xlink:href="#az"/><use transform="matrix(0.06234567901234567,0,0,0.06234567901234567,46.073456790123444,0)" xlink:href="#aA"/><use transform="matrix(0.06234567901234567,0,0,0.06234567901234567,58.54259259259258,0)" xlink:href="#as"/><use transform="matrix(0.06234567901234567,0,0,0.06234567901234567,71.01172839506171,0)" xlink:href="#at"/><use transform="matrix(0.06234567901234567,0,0,0.06234567901234567,83.48086419753085,0)" xlink:href="#ax"/><use transform="matrix(0.06234567901234567,0,0,0.06234567901234567,88.40617283950616,0)" xlink:href="#ay"/><use transform="matrix(0.06234567901234567,0,0,0.06234567901234567,100.8753086419753,0)" xlink:href="#aY"/><use transform="matrix(0.06234567901234567,0,0,0.06234567901234567,113.34444444444443,0)" xlink:href="#aZ"/></g><g id="C"><use transform="matrix(0.06234567901234567,0,0,0.06234567901234567,0,0)" xlink:href="#aL"/><use transform="matrix(0.06234567901234567,0,0,0.06234567901234567,13.09259259259259,0)" xlink:href="#aA"/><use transform="matrix(0.06234567901234567,0,0,0.06234567901234567,25.56172839506172,0)" xlink:href="#aF"/><use transform="matrix(0.06234567901234567,0,0,0.06234567901234567,36.78395061728394,0)" xlink:href="#aF"/><use transform="matrix(0.06234567901234567,0,0,0.06234567901234567,48.00617283950616,0)" xlink:href="#ay"/><use transform="matrix(0.06234567901234567,0,0,0.06234567901234567,60.475308641975296,0)" xlink:href="#ax"/><use transform="matrix(0.06234567901234567,0,0,0.06234567901234567,65.40061728395061,0)" xlink:href="#ay"/><use transform="matrix(0.06234567901234567,0,0,0.06234567901234567,77.86975308641973,0)" xlink:href="#aH"/><use transform="matrix(0.06234567901234567,0,0,0.06234567901234567,85.28888888888886,0)" xlink:href="#aA"/><use transform="matrix(0.06234567901234567,0,0,0.06234567901234567,97.758024691358,0)" xlink:href="#az"/><use transform="matrix(0.06234567901234567,0,0,0.06234567901234567,103.99259259259257,0)" xlink:href="#au"/><use transform="matrix(0.06234567901234567,0,0,0.06234567901234567,108.91790123456788,0)" xlink:href="#ar"/><use transform="matrix(0.06234567901234567,0,0,0.06234567901234567,121.387037037037,0)" xlink:href="#as"/></g><path fill="#282c33" d="M137 0h-34L2-248h35l83 218 83-218h36" id="ba"/><path fill="#282c33" d="M101-234c-31-9-42 10-38 44h38v23H63V0H32v-167H5v-23h27c-7-52 17-82 69-68v24" id="bb"/><g id="D"><use transform="matrix(0.06234567901234567,0,0,0.06234567901234567,0,0)" xlink:href="#ba"/><use transform="matrix(0.06234567901234567,0,0,0.06234567901234567,13.716049382716047,0)" xlink:href="#ay"/><use transform="matrix(0.06234567901234567,0,0,0.06234567901234567,26.18518518518518,0)" xlink:href="#aF"/><use transform="matrix(0.06234567901234567,0,0,0.06234567901234567,37.4074074074074,0)" xlink:href="#aY"/><use transform="matrix(0.06234567901234567,0,0,0.06234567901234567,49.87654320987653,0)" xlink:href="#aU"/><use transform="matrix(0.06234567901234567,0,0,0.06234567901234567,62.96913580246912,0)" xlink:href="#bb"/><use transform="matrix(0.06234567901234567,0,0,0.06234567901234567,69.20370370370368,0)" xlink:href="#ax"/><use transform="matrix(0.06234567901234567,0,0,0.06234567901234567,74.12901234567899,0)" xlink:href="#ar"/><use transform="matrix(0.06234567901234567,0,0,0.06234567901234567,86.59814814814811,0)" xlink:href="#aA"/><use transform="matrix(0.06234567901234567,0,0,0.06234567901234567,99.06728395061725,0)" xlink:href="#az"/><use transform="matrix(0.06234567901234567,0,0,0.06234567901234567,105.30185185185182,0)" xlink:href="#aV"/></g><path fill="#282c33" d="M179-190L93 31C79 59 56 82 12 73V49c39 6 53-20 64-50L1-190h34L92-34l54-156h33" id="bc"/><g id="E"><use transform="matrix(0.06234567901234567,0,0,0.06234567901234567,0,0)" xlink:href="#aL"/><use transform="matrix(0.06234567901234567,0,0,0.06234567901234567,13.09259259259259,0)" xlink:href="#aP"/><use transform="matrix(0.06234567901234567,0,0,0.06234567901234567,24.31481481481481,0)" xlink:href="#ay"/><use transform="matrix(0.06234567901234567,0,0,0.06234567901234567,36.78395061728394,0)" xlink:href="#ax"/><use transform="matrix(0.06234567901234567,0,0,0.06234567901234567,41.70925925925925,0)" xlink:href="#ar"/><use transform="matrix(0.06234567901234567,0,0,0.06234567901234567,54.17839506172838,0)" xlink:href="#aF"/><use transform="matrix(0.06234567901234567,0,0,0.06234567901234567,65.4006172839506,0)" xlink:href="#au"/><use transform="matrix(0.06234567901234567,0,0,0.06234567901234567,70.3259259259259,0)" xlink:href="#az"/><use transform="matrix(0.06234567901234567,0,0,0.06234567901234567,76.56049382716047,0)" xlink:href="#bc"/></g><g id="F"><use transform="matrix(0.06234567901234567,0,0,0.06234567901234567,0,0)" xlink:href="#ba"/><use transform="matrix(0.06234567901234567,0,0,0.06234567901234567,13.716049382716047,0)" xlink:href="#ay"/><use transform="matrix(0.06234567901234567,0,0,0.06234567901234567,26.18518518518518,0)" xlink:href="#aF"/><use transform="matrix(0.06234567901234567,0,0,0.06234567901234567,37.4074074074074,0)" xlink:href="#aY"/><use transform="matrix(0.06234567901234567,0,0,0.06234567901234567,49.87654320987653,0)" xlink:href="#aU"/><use transform="matrix(0.06234567901234567,0,0,0.06234567901234567,62.96913580246912,0)" xlink:href="#bb"/><use transform="matrix(0.06234567901234567,0,0,0.06234567901234567,69.20370370370368,0)" xlink:href="#ax"/><use transform="matrix(0.06234567901234567,0,0,0.06234567901234567,74.12901234567899,0)" xlink:href="#ar"/><use transform="matrix(0.06234567901234567,0,0,0.06234567901234567,86.59814814814811,0)" xlink:href="#aA"/><use transform="matrix(0.06234567901234567,0,0,0.06234567901234567,99.06728395061725,0)" xlink:href="#az"/><use transform="matrix(0.06234567901234567,0,0,0.06234567901234567,105.30185185185182,0)" xlink:href="#aV"/></g><g id="G"><use transform="matrix(0.06234567901234567,0,0,0.06234567901234567,0,0)" xlink:href="#aP"/><use transform="matrix(0.06234567901234567,0,0,0.06234567901234567,11.22222222222222,0)" xlink:href="#ar"/><use transform="matrix(0.06234567901234567,0,0,0.06234567901234567,23.691358024691354,0)" xlink:href="#au"/><use transform="matrix(0.06234567901234567,0,0,0.06234567901234567,28.61666666666666,0)" xlink:href="#aQ"/></g><path fill="#282c33" d="M0 4l72-265h28L28 4H0" id="bd"/><g id="H"><use transform="matrix(0.06234567901234567,0,0,0.06234567901234567,0,0)" xlink:href="#bd"/><use transform="matrix(0.06234567901234567,0,0,0.06234567901234567,6.234567901234566,0)" xlink:href="#bd"/><use transform="matrix(0.06234567901234567,0,0,0.06234567901234567,12.469135802469133,0)" xlink:href="#aA"/><use transform="matrix(0.06234567901234567,0,0,0.06234567901234567,24.938271604938265,0)" xlink:href="#aS"/><use transform="matrix(0.06234567901234567,0,0,0.06234567901234567,37.4074074074074,0)" xlink:href="#aM"/><use transform="matrix(0.06234567901234567,0,0,0.06234567901234567,48.62962962962962,0)" xlink:href="#az"/><use transform="matrix(0.06234567901234567,0,0,0.06234567901234567,54.86419753086419,0)" xlink:href="#aH"/><use transform="matrix(0.06234567901234567,0,0,0.06234567901234567,62.283333333333324,0)" xlink:href="#aA"/><use transform="matrix(0.06234567901234567,0,0,0.06234567901234567,74.75246913580246,0)" xlink:href="#aF"/><use transform="matrix(0.06234567901234567,0,0,0.06234567901234567,85.97469135802467,0)" xlink:href="#az"/></g><g id="I"><use transform="matrix(0.06234567901234567,0,0,0.06234567901234567,0,0)" xlink:href="#aL"/><use transform="matrix(0.06234567901234567,0,0,0.06234567901234567,13.09259259259259,0)" xlink:href="#aF"/><use transform="matrix(0.06234567901234567,0,0,0.06234567901234567,24.31481481481481,0)" xlink:href="#ax"/><use transform="matrix(0.06234567901234567,0,0,0.06234567901234567,29.240123456790116,0)" xlink:href="#ay"/><use transform="matrix(0.06234567901234567,0,0,0.06234567901234567,41.70925925925925,0)" xlink:href="#aA"/><use transform="matrix(0.06234567901234567,0,0,0.06234567901234567,54.17839506172838,0)" xlink:href="#aH"/><use transform="matrix(0.06234567901234567,0,0,0.06234567901234567,61.597530864197516,0)" xlink:href="#aN"/><use transform="matrix(0.06234567901234567,0,0,0.06234567901234567,69.01666666666665,0)" xlink:href="#aO"/></g><g id="J"><use transform="matrix(0.06234567901234567,0,0,0.06234567901234567,0,0)" xlink:href="#aX"/><use transform="matrix(0.06234567901234567,0,0,0.06234567901234567,16.147530864197527,0)" xlink:href="#ay"/><use transform="matrix(0.06234567901234567,0,0,0.06234567901234567,28.61666666666666,0)" xlink:href="#aF"/><use transform="matrix(0.06234567901234567,0,0,0.06234567901234567,39.83888888888888,0)" xlink:href="#az"/><use transform="matrix(0.06234567901234567,0,0,0.06234567901234567,46.073456790123444,0)" xlink:href="#aA"/><use transform="matrix(0.06234567901234567,0,0,0.06234567901234567,58.54259259259258,0)" xlink:href="#as"/><use transform="matrix(0.06234567901234567,0,0,0.06234567901234567,71.01172839506171,0)" xlink:href="#at"/><use transform="matrix(0.06234567901234567,0,0,0.06234567901234567,83.48086419753085,0)" xlink:href="#ax"/><use transform="matrix(0.06234567901234567,0,0,0.06234567901234567,88.40617283950616,0)" xlink:href="#ay"/><use transform="matrix(0.06234567901234567,0,0,0.06234567901234567,100.8753086419753,0)" xlink:href="#aY"/><use transform="matrix(0.06234567901234567,0,0,0.06234567901234567,113.34444444444443,0)" xlink:href="#aZ"/></g><path fill="#282c33" d="M9 0v-24l116-142H16v-24h144v24L44-24h123V0H9" id="be"/><g id="K"><use transform="matrix(0.06234567901234567,0,0,0.06234567901234567,0,0)" xlink:href="#aL"/><use transform="matrix(0.06234567901234567,0,0,0.06234567901234567,13.09259259259259,0)" xlink:href="#aM"/><use transform="matrix(0.06234567901234567,0,0,0.06234567901234567,24.31481481481481,0)" xlink:href="#au"/><use transform="matrix(0.06234567901234567,0,0,0.06234567901234567,29.240123456790116,0)" xlink:href="#be"/><use transform="matrix(0.06234567901234567,0,0,0.06234567901234567,40.46234567901234,0)" xlink:href="#ay"/></g><g id="L"><use transform="matrix(0.06234567901234567,0,0,0.06234567901234567,0,0)" xlink:href="#ba"/><use transform="matrix(0.06234567901234567,0,0,0.06234567901234567,13.716049382716047,0)" xlink:href="#ay"/><use transform="matrix(0.06234567901234567,0,0,0.06234567901234567,26.18518518518518,0)" xlink:href="#aF"/><use transform="matrix(0.06234567901234567,0,0,0.06234567901234567,37.4074074074074,0)" xlink:href="#aY"/><use transform="matrix(0.06234567901234567,0,0,0.06234567901234567,49.87654320987653,0)" xlink:href="#aU"/><use transform="matrix(0.06234567901234567,0,0,0.06234567901234567,62.96913580246912,0)" xlink:href="#au"/><use transform="matrix(0.06234567901234567,0,0,0.06234567901234567,67.89444444444443,0)" xlink:href="#as"/><use transform="matrix(0.06234567901234567,0,0,0.06234567901234567,80.36358024691356,0)" xlink:href="#az"/><use transform="matrix(0.06234567901234567,0,0,0.06234567901234567,86.59814814814813,0)" xlink:href="#aV"/></g><g id="M"><use transform="matrix(0.06234567901234567,0,0,0.06234567901234567,0,0)" xlink:href="#aL"/><use transform="matrix(0.06234567901234567,0,0,0.06234567901234567,13.09259259259259,0)" xlink:href="#aw"/><use transform="matrix(0.06234567901234567,0,0,0.06234567901234567,25.56172839506172,0)" xlink:href="#ar"/><use transform="matrix(0.06234567901234567,0,0,0.06234567901234567,38.03086419753085,0)" xlink:href="#aM"/><use transform="matrix(0.06234567901234567,0,0,0.06234567901234567,49.253086419753075,0)" xlink:href="#au"/><use transform="matrix(0.06234567901234567,0,0,0.06234567901234567,54.17839506172838,0)" xlink:href="#az"/><use transform="matrix(0.06234567901234567,0,0,0.06234567901234567,60.41296296296295,0)" xlink:href="#au"/><use transform="matrix(0.06234567901234567,0,0,0.06234567901234567,65.33827160493826,0)" xlink:href="#ar"/><use transform="matrix(0.06234567901234567,0,0,0.06234567901234567,77.8074074074074,0)" xlink:href="#as"/></g><path fill="#282c33" d="M-5 72V49h209v23H-5" id="bf"/><g id="N"><use transform="matrix(0.06234567901234567,0,0,0.06234567901234567,0,0)" xlink:href="#aL"/><use transform="matrix(0.06234567901234567,0,0,0.06234567901234567,13.09259259259259,0)" xlink:href="#aw"/><use transform="matrix(0.06234567901234567,0,0,0.06234567901234567,25.56172839506172,0)" xlink:href="#aH"/><use transform="matrix(0.06234567901234567,0,0,0.06234567901234567,32.980864197530856,0)" xlink:href="#ay"/><use transform="matrix(0.06234567901234567,0,0,0.06234567901234567,45.44999999999999,0)" xlink:href="#aP"/><use transform="matrix(0.06234567901234567,0,0,0.06234567901234567,56.67222222222221,0)" xlink:href="#bf"/><use transform="matrix(0.06234567901234567,0,0,0.06234567901234567,69.14135802469134,0)" xlink:href="#aw"/><use transform="matrix(0.06234567901234567,0,0,0.06234567901234567,81.61049382716047,0)" xlink:href="#ar"/><use transform="matrix(0.06234567901234567,0,0,0.06234567901234567,94.07962962962961,0)" xlink:href="#aM"/><use transform="matrix(0.06234567901234567,0,0,0.06234567901234567,105.30185185185182,0)" xlink:href="#au"/><use transform="matrix(0.06234567901234567,0,0,0.06234567901234567,110.22716049382713,0)" xlink:href="#az"/><use transform="matrix(0.06234567901234567,0,0,0.06234567901234567,116.4617283950617,0)" xlink:href="#au"/><use transform="matrix(0.06234567901234567,0,0,0.06234567901234567,121.387037037037,0)" xlink:href="#ar"/><use transform="matrix(0.06234567901234567,0,0,0.06234567901234567,133.85617283950614,0)" xlink:href="#as"/><use transform="matrix(0.06234567901234567,0,0,0.06234567901234567,146.32530864197528,0)" xlink:href="#aJ"/></g><path fill="#282c33" d="M26 75v-336h71v23H56V52h41v23H26" id="bg"/><path fill="#282c33" d="M3 75V52h41v-290H3v-23h71V75H3" id="bh"/><g id="O"><use transform="matrix(0.06234567901234567,0,0,0.06234567901234567,0,0)" xlink:href="#ba"/><use transform="matrix(0.06234567901234567,0,0,0.06234567901234567,13.716049382716047,0)" xlink:href="#ay"/><use transform="matrix(0.06234567901234567,0,0,0.06234567901234567,26.18518518518518,0)" xlink:href="#aF"/><use transform="matrix(0.06234567901234567,0,0,0.06234567901234567,37.4074074074074,0)" xlink:href="#aY"/><use transform="matrix(0.06234567901234567,0,0,0.06234567901234567,49.87654320987653,0)" xlink:href="#aU"/><use transform="matrix(0.06234567901234567,0,0,0.06234567901234567,62.96913580246912,0)" xlink:href="#au"/><use transform="matrix(0.06234567901234567,0,0,0.06234567901234567,67.89444444444443,0)" xlink:href="#as"/><use transform="matrix(0.06234567901234567,0,0,0.06234567901234567,80.36358024691356,0)" xlink:href="#az"/><use transform="matrix(0.06234567901234567,0,0,0.06234567901234567,86.59814814814813,0)" xlink:href="#aV"/><use transform="matrix(0.06234567901234567,0,0,0.06234567901234567,99.69074074074072,0)" xlink:href="#bg"/><use transform="matrix(0.06234567901234567,0,0,0.06234567901234567,105.92530864197529,0)" xlink:href="#aY"/><use transform="matrix(0.06234567901234567,0,0,0.06234567901234567,118.39444444444442,0)" xlink:href="#bh"/></g><g id="P"><use transform="matrix(0.06234567901234567,0,0,0.06234567901234567,0,0)" xlink:href="#aL"/><use transform="matrix(0.06234567901234567,0,0,0.06234567901234567,13.09259259259259,0)" xlink:href="#aF"/><use transform="matrix(0.06234567901234567,0,0,0.06234567901234567,24.31481481481481,0)" xlink:href="#ar"/><use transform="matrix(0.06234567901234567,0,0,0.06234567901234567,36.78395061728394,0)" xlink:href="#ax"/><use transform="matrix(0.06234567901234567,0,0,0.06234567901234567,41.70925925925925,0)" xlink:href="#ar"/><use transform="matrix(0.06234567901234567,0,0,0.06234567901234567,54.17839506172838,0)" xlink:href="#aH"/></g><path fill="#282c33" d="M126-127c33 6 58 20 58 59 0 88-139 92-164 29-3-8-5-16-6-25l32-3c6 27 21 44 54 44 32 0 52-15 52-46 0-38-36-46-79-43v-28c39 1 72-4 72-42 0-27-17-43-46-43-28 0-47 15-49 41l-32-3c6-42 35-63 81-64 48-1 79 21 79 65 0 36-21 52-52 59" id="bi"/><g id="Q"><use transform="matrix(0.06234567901234567,0,0,0.06234567901234567,0,0)" xlink:href="#aG"/><use transform="matrix(0.06234567901234567,0,0,0.06234567901234567,12.469135802469133,0)" xlink:href="#au"/><use transform="matrix(0.06234567901234567,0,0,0.06234567901234567,17.39444444444444,0)" xlink:href="#as"/><use transform="matrix(0.06234567901234567,0,0,0.06234567901234567,29.86358024691357,0)" xlink:href="#az"/><use transform="matrix(0.06234567901234567,0,0,0.06234567901234567,36.09814814814814,0)" xlink:href="#bi"/><use transform="matrix(0.06234567901234567,0,0,0.06234567901234567,48.56728395061727,0)" xlink:href="#aY"/><use transform="matrix(0.06234567901234567,0,0,0.06234567901234567,61.036419753086406,0)" xlink:href="#bf"/><use transform="matrix(0.06234567901234567,0,0,0.06234567901234567,73.50555555555553,0)" xlink:href="#az"/></g><path fill="#282c33" d="M206 0h-36l-40-164L89 0H53L-1-190h32L70-26l43-164h34l41 164 42-164h31" id="bj"/><g id="R"><use transform="matrix(0.06234567901234567,0,0,0.06234567901234567,0,0)" xlink:href="#aL"/><use transform="matrix(0.06234567901234567,0,0,0.06234567901234567,13.09259259259259,0)" xlink:href="#aQ"/><use transform="matrix(0.06234567901234567,0,0,0.06234567901234567,25.56172839506172,0)" xlink:href="#aH"/><use transform="matrix(0.06234567901234567,0,0,0.06234567901234567,32.980864197530856,0)" xlink:href="#aA"/><use transform="matrix(0.06234567901234567,0,0,0.06234567901234567,45.44999999999999,0)" xlink:href="#bj"/><use transform="matrix(0.06234567901234567,0,0,0.06234567901234567,61.597530864197516,0)" xlink:href="#aN"/><use transform="matrix(0.06234567901234567,0,0,0.06234567901234567,69.01666666666665,0)" xlink:href="#aO"/></g><g id="S"><use transform="matrix(0.06234567901234567,0,0,0.06234567901234567,0,0)" xlink:href="#aq"/><use transform="matrix(0.06234567901234567,0,0,0.06234567901234567,14.96296296296296,0)" xlink:href="#aA"/><use transform="matrix(0.06234567901234567,0,0,0.06234567901234567,27.432098765432094,0)" xlink:href="#aQ"/><use transform="matrix(0.06234567901234567,0,0,0.06234567901234567,39.90123456790123,0)" xlink:href="#aQ"/><use transform="matrix(0.06234567901234567,0,0,0.06234567901234567,52.37037037037036,0)" xlink:href="#ax"/><use transform="matrix(0.06234567901234567,0,0,0.06234567901234567,57.295679012345666,0)" xlink:href="#ay"/></g><g id="T"><use transform="matrix(0.06234567901234567,0,0,0.06234567901234567,0,0)" xlink:href="#aL"/><use transform="matrix(0.06234567901234567,0,0,0.06234567901234567,13.09259259259259,0)" xlink:href="#aG"/><use transform="matrix(0.06234567901234567,0,0,0.06234567901234567,25.56172839506172,0)" xlink:href="#aw"/><use transform="matrix(0.06234567901234567,0,0,0.06234567901234567,38.03086419753085,0)" xlink:href="#aI"/><use transform="matrix(0.06234567901234567,0,0,0.06234567901234567,52.993827160493815,0)" xlink:href="#au"/><use transform="matrix(0.06234567901234567,0,0,0.06234567901234567,57.91913580246912,0)" xlink:href="#at"/><use transform="matrix(0.06234567901234567,0,0,0.06234567901234567,70.38827160493825,0)" xlink:href="#as"/><use transform="matrix(0.06234567901234567,0,0,0.06234567901234567,82.85740740740738,0)" xlink:href="#aA"/><use transform="matrix(0.06234567901234567,0,0,0.06234567901234567,95.32654320987652,0)" xlink:href="#ax"/></g><g id="U"><use transform="matrix(0.06234567901234567,0,0,0.06234567901234567,0,0)" xlink:href="#aS"/><use transform="matrix(0.06234567901234567,0,0,0.06234567901234567,12.469135802469133,0)" xlink:href="#ar"/><use transform="matrix(0.06234567901234567,0,0,0.06234567901234567,24.938271604938265,0)" xlink:href="#ar"/><use transform="matrix(0.06234567901234567,0,0,0.06234567901234567,37.4074074074074,0)" xlink:href="#ax"/></g><use transform="matrix(0.06234567901234567,0,0,0.06234567901234567,0,0)" xlink:href="#aK" id="V"/><g id="W"><use transform="matrix(0.06234567901234567,0,0,0.06234567901234567,0,0)" xlink:href="#aQ"/><use transform="matrix(0.06234567901234567,0,0,0.06234567901234567,12.469135802469133,0)" xlink:href="#ar"/><use transform="matrix(0.06234567901234567,0,0,0.06234567901234567,24.938271604938265,0)" xlink:href="#bj"/><use transform="matrix(0.06234567901234567,0,0,0.06234567901234567,41.08580246913579,0)" xlink:href="#as"/><use transform="matrix(0.06234567901234567,0,0,0.06234567901234567,53.554938271604925,0)" xlink:href="#aI"/><use transform="matrix(0.06234567901234567,0,0,0.06234567901234567,68.51790123456789,0)" xlink:href="#au"/><use transform="matrix(0.06234567901234567,0,0,0.06234567901234567,73.4432098765432,0)" xlink:href="#at"/><use transform="matrix(0.06234567901234567,0,0,0.06234567901234567,85.91234567901233,0)" xlink:href="#as"/><use transform="matrix(0.06234567901234567,0,0,0.06234567901234567,98.38148148148147,0)" xlink:href="#aA"/><use transform="matrix(0.06234567901234567,0,0,0.06234567901234567,110.85061728395061,0)" xlink:href="#ax"/></g><g id="X"><use transform="matrix(0.06234567901234567,0,0,0.06234567901234567,0,0)" xlink:href="#bj"/><use transform="matrix(0.06234567901234567,0,0,0.06234567901234567,16.147530864197527,0)" xlink:href="#au"/><use transform="matrix(0.06234567901234567,0,0,0.06234567901234567,21.072839506172834,0)" xlink:href="#as"/></g><g id="Y"><use transform="matrix(0.06234567901234567,0,0,0.06234567901234567,0,0)" xlink:href="#aS"/><use transform="matrix(0.06234567901234567,0,0,0.06234567901234567,12.469135802469133,0)" xlink:href="#ar"/><use transform="matrix(0.06234567901234567,0,0,0.06234567901234567,24.938271604938265,0)" xlink:href="#ar"/><use transform="matrix(0.06234567901234567,0,0,0.06234567901234567,37.4074074074074,0)" xlink:href="#ax"/></g><g id="Z"><use transform="matrix(0.06234567901234567,0,0,0.06234567901234567,0,0)" xlink:href="#aM"/><use transform="matrix(0.06234567901234567,0,0,0.06234567901234567,11.22222222222222,0)" xlink:href="#aw"/><use transform="matrix(0.06234567901234567,0,0,0.06234567901234567,23.691358024691354,0)" xlink:href="#ay"/><use transform="matrix(0.06234567901234567,0,0,0.06234567901234567,36.16049382716049,0)" xlink:href="#ay"/><use transform="matrix(0.06234567901234567,0,0,0.06234567901234567,48.62962962962962,0)" xlink:href="#aQ"/></g><g id="aa"><use transform="matrix(0.06234567901234567,0,0,0.06234567901234567,0,0)" xlink:href="#au"/><use transform="matrix(0.06234567901234567,0,0,0.06234567901234567,4.925308641975308,0)" xlink:href="#as"/><use transform="matrix(0.06234567901234567,0,0,0.06234567901234567,17.39444444444444,0)" xlink:href="#az"/></g><g id="ab"><use transform="matrix(0.06234567901234567,0,0,0.06234567901234567,0,0)" xlink:href="#ar"/><use transform="matrix(0.06234567901234567,0,0,0.06234567901234567,12.469135802469133,0)" xlink:href="#aH"/><use transform="matrix(0.06234567901234567,0,0,0.06234567901234567,19.888271604938268,0)" xlink:href="#au"/><use transform="matrix(0.06234567901234567,0,0,0.06234567901234567,24.813580246913574,0)" xlink:href="#at"/><use transform="matrix(0.06234567901234567,0,0,0.06234567901234567,37.28271604938271,0)" xlink:href="#au"/><use transform="matrix(0.06234567901234567,0,0,0.06234567901234567,42.20802469135801,0)" xlink:href="#as"/><use transform="matrix(0.06234567901234567,0,0,0.06234567901234567,54.677160493827145,0)" xlink:href="#aA"/><use transform="matrix(0.06234567901234567,0,0,0.06234567901234567,67.14629629629627,0)" xlink:href="#ax"/><use transform="matrix(0.06234567901234567,0,0,0.06234567901234567,72.07160493827158,0)" xlink:href="#bf"/><use transform="matrix(0.06234567901234567,0,0,0.06234567901234567,84.54074074074072,0)" xlink:href="#aF"/><use transform="matrix(0.06234567901234567,0,0,0.06234567901234567,95.76296296296293,0)" xlink:href="#ar"/><use transform="matrix(0.06234567901234567,0,0,0.06234567901234567,108.23209876543206,0)" xlink:href="#ax"/><use transform="matrix(0.06234567901234567,0,0,0.06234567901234567,113.15740740740736,0)" xlink:href="#ar"/><use transform="matrix(0.06234567901234567,0,0,0.06234567901234567,125.6265432098765,0)" xlink:href="#aH"/></g><g id="ac"><use transform="matrix(0.06234567901234567,0,0,0.06234567901234567,0,0)" xlink:href="#au"/><use transform="matrix(0.06234567901234567,0,0,0.06234567901234567,4.925308641975308,0)" xlink:href="#as"/><use transform="matrix(0.06234567901234567,0,0,0.06234567901234567,17.39444444444444,0)" xlink:href="#az"/></g><g id="ad"><use transform="matrix(0.06234567901234567,0,0,0.06234567901234567,0,0)" xlink:href="#at"/><use transform="matrix(0.06234567901234567,0,0,0.06234567901234567,12.469135802469133,0)" xlink:href="#ay"/><use transform="matrix(0.06234567901234567,0,0,0.06234567901234567,24.938271604938265,0)" xlink:href="#az"/><use transform="matrix(0.06234567901234567,0,0,0.06234567901234567,31.17283950617283,0)" xlink:href="#bf"/><use transform="matrix(0.06234567901234567,0,0,0.06234567901234567,43.64197530864196,0)" xlink:href="#aw"/><use transform="matrix(0.06234567901234567,0,0,0.06234567901234567,56.11111111111109,0)" xlink:href="#ar"/><use transform="matrix(0.06234567901234567,0,0,0.06234567901234567,68.58024691358023,0)" xlink:href="#aM"/><use transform="matrix(0.06234567901234567,0,0,0.06234567901234567,79.80246913580244,0)" xlink:href="#au"/><use transform="matrix(0.06234567901234567,0,0,0.06234567901234567,84.72777777777775,0)" xlink:href="#az"/><use transform="matrix(0.06234567901234567,0,0,0.06234567901234567,90.96234567901232,0)" xlink:href="#au"/><use transform="matrix(0.06234567901234567,0,0,0.06234567901234567,95.88765432098762,0)" xlink:href="#ar"/><use transform="matrix(0.06234567901234567,0,0,0.06234567901234567,108.35679012345676,0)" xlink:href="#as"/><use transform="matrix(0.06234567901234567,0,0,0.06234567901234567,120.8259259259259,0)" xlink:href="#aN"/><use transform="matrix(0.06234567901234567,0,0,0.06234567901234567,128.24506172839503,0)" xlink:href="#aO"/></g><g id="ae"><use transform="matrix(0.06234567901234567,0,0,0.06234567901234567,0,0)" xlink:href="#at"/><use transform="matrix(0.06234567901234567,0,0,0.06234567901234567,12.469135802469133,0)" xlink:href="#ay"/><use transform="matrix(0.06234567901234567,0,0,0.06234567901234567,24.938271604938265,0)" xlink:href="#az"/><use transform="matrix(0.06234567901234567,0,0,0.06234567901234567,31.17283950617283,0)" xlink:href="#bf"/><use transform="matrix(0.06234567901234567,0,0,0.06234567901234567,43.64197530864196,0)" xlink:href="#aM"/><use transform="matrix(0.06234567901234567,0,0,0.06234567901234567,54.86419753086418,0)" xlink:href="#au"/><use transform="matrix(0.06234567901234567,0,0,0.06234567901234567,59.78950617283949,0)" xlink:href="#be"/><use transform="matrix(0.06234567901234567,0,0,0.06234567901234567,71.01172839506171,0)" xlink:href="#ay"/><use transform="matrix(0.06234567901234567,0,0,0.06234567901234567,83.48086419753085,0)" xlink:href="#aN"/><use transform="matrix(0.06234567901234567,0,0,0.06234567901234567,90.89999999999998,0)" xlink:href="#aO"/></g><g id="af"><use transform="matrix(0.06234567901234567,0,0,0.06234567901234567,0,0)" xlink:href="#ba"/><use transform="matrix(0.06234567901234567,0,0,0.06234567901234567,13.716049382716047,0)" xlink:href="#ay"/><use transform="matrix(0.06234567901234567,0,0,0.06234567901234567,26.18518518518518,0)" xlink:href="#aF"/><use transform="matrix(0.06234567901234567,0,0,0.06234567901234567,37.4074074074074,0)" xlink:href="#aY"/></g><g id="ag"><use transform="matrix(0.06234567901234567,0,0,0.06234567901234567,0,0)" xlink:href="#aU"/><use transform="matrix(0.06234567901234567,0,0,0.06234567901234567,13.09259259259259,0)" xlink:href="#au"/><use transform="matrix(0.06234567901234567,0,0,0.06234567901234567,18.017901234567898,0)" xlink:href="#as"/><use transform="matrix(0.06234567901234567,0,0,0.06234567901234567,30.48703703703703,0)" xlink:href="#az"/><use transform="matrix(0.06234567901234567,0,0,0.06234567901234567,36.7216049382716,0)" xlink:href="#aV"/></g><path fill="#282c33" d="M127-220V0H93v-220H8v-28h204v28h-85" id="bk"/><g id="ah"><use transform="matrix(0.06234567901234567,0,0,0.06234567901234567,0,0)" xlink:href="#aq"/><use transform="matrix(0.06234567901234567,0,0,0.06234567901234567,14.96296296296296,0)" xlink:href="#ar"/><use transform="matrix(0.06234567901234567,0,0,0.06234567901234567,27.432098765432094,0)" xlink:href="#as"/><use transform="matrix(0.06234567901234567,0,0,0.06234567901234567,39.90123456790123,0)" xlink:href="#at"/><use transform="matrix(0.06234567901234567,0,0,0.06234567901234567,52.37037037037036,0)" xlink:href="#bk"/><use transform="matrix(0.06234567901234567,0,0,0.06234567901234567,66.02407407407406,0)" xlink:href="#aW"/><use transform="matrix(0.06234567901234567,0,0,0.06234567901234567,78.4932098765432,0)" xlink:href="#ay"/><use transform="matrix(0.06234567901234567,0,0,0.06234567901234567,90.96234567901234,0)" xlink:href="#aB"/><use transform="matrix(0.06234567901234567,0,0,0.06234567901234567,108.41913580246913,0)" xlink:href="#aA"/><use transform="matrix(0.06234567901234567,0,0,0.06234567901234567,120.88827160493827,0)" xlink:href="#av"/><use transform="matrix(0.06234567901234567,0,0,0.06234567901234567,139.52962962962962,0)" xlink:href="#ay"/></g><path fill="#282c33" d="M160-131c35 5 61 23 61 61C221 17 115-2 30 0v-248c76 3 177-17 177 60 0 33-19 50-47 57zm-97-11c50-1 110 9 110-42 0-47-63-36-110-37v79zm0 115c55-2 124 14 124-45 0-56-70-42-124-44v89" id="bl"/><g id="ai"><use transform="matrix(0.06234567901234567,0,0,0.06234567901234567,0,0)" xlink:href="#bl"/><use transform="matrix(0.06234567901234567,0,0,0.06234567901234567,14.96296296296296,0)" xlink:href="#aA"/><use transform="matrix(0.06234567901234567,0,0,0.06234567901234567,27.432098765432094,0)" xlink:href="#ax"/><use transform="matrix(0.06234567901234567,0,0,0.06234567901234567,32.3574074074074,0)" xlink:href="#ax"/></g><path fill="#282c33" d="M27 0v-27h64v-190l-56 39v-29l58-41h29v221h61V0H27" id="bm"/><g id="aj"><use transform="matrix(0.06234567901234567,0,0,0.06234567901234567,0,0)" xlink:href="#aw"/><use transform="matrix(0.06234567901234567,0,0,0.06234567901234567,12.469135802469133,0)" xlink:href="#aA"/><use transform="matrix(0.06234567901234567,0,0,0.06234567901234567,24.938271604938265,0)" xlink:href="#aQ"/><use transform="matrix(0.06234567901234567,0,0,0.06234567901234567,37.4074074074074,0)" xlink:href="#aQ"/><use transform="matrix(0.06234567901234567,0,0,0.06234567901234567,49.87654320987653,0)" xlink:href="#ax"/><use transform="matrix(0.06234567901234567,0,0,0.06234567901234567,54.801851851851836,0)" xlink:href="#ay"/><use transform="matrix(0.06234567901234567,0,0,0.06234567901234567,67.27098765432098,0)" xlink:href="#bf"/><use transform="matrix(0.06234567901234567,0,0,0.06234567901234567,79.74012345679012,0)" xlink:href="#bm"/></g><g id="ak"><use transform="matrix(0.06234567901234567,0,0,0.06234567901234567,0,0)" xlink:href="#aq"/><use transform="matrix(0.06234567901234567,0,0,0.06234567901234567,14.96296296296296,0)" xlink:href="#aA"/><use transform="matrix(0.06234567901234567,0,0,0.06234567901234567,27.432098765432094,0)" xlink:href="#aQ"/><use transform="matrix(0.06234567901234567,0,0,0.06234567901234567,39.90123456790123,0)" xlink:href="#aQ"/><use transform="matrix(0.06234567901234567,0,0,0.06234567901234567,52.37037037037036,0)" xlink:href="#ax"/><use transform="matrix(0.06234567901234567,0,0,0.06234567901234567,57.295679012345666,0)" xlink:href="#ay"/><use transform="matrix(0.06234567901234567,0,0,0.06234567901234567,69.7648148148148,0)" xlink:href="#aK"/></g><g id="al"><use transform="matrix(0.06234567901234567,0,0,0.06234567901234567,0,0)" xlink:href="#aw"/><use transform="matrix(0.06234567901234567,0,0,0.06234567901234567,12.469135802469133,0)" xlink:href="#aA"/><use transform="matrix(0.06234567901234567,0,0,0.06234567901234567,24.938271604938265,0)" xlink:href="#aQ"/><use transform="matrix(0.06234567901234567,0,0,0.06234567901234567,37.4074074074074,0)" xlink:href="#aQ"/><use transform="matrix(0.06234567901234567,0,0,0.06234567901234567,49.87654320987653,0)" xlink:href="#ax"/><use transform="matrix(0.06234567901234567,0,0,0.06234567901234567,54.801851851851836,0)" xlink:href="#ay"/><use transform="matrix(0.06234567901234567,0,0,0.06234567901234567,67.27098765432098,0)" xlink:href="#bf"/><use transform="matrix(0.06234567901234567,0,0,0.06234567901234567,79.74012345679012,0)" xlink:href="#aY"/></g><g id="am"><use transform="matrix(0.06234567901234567,0,0,0.06234567901234567,0,0)" xlink:href="#aq"/><use transform="matrix(0.06234567901234567,0,0,0.06234567901234567,14.96296296296296,0)" xlink:href="#aA"/><use transform="matrix(0.06234567901234567,0,0,0.06234567901234567,27.432098765432094,0)" xlink:href="#aQ"/><use transform="matrix(0.06234567901234567,0,0,0.06234567901234567,39.90123456790123,0)" xlink:href="#aQ"/><use transform="matrix(0.06234567901234567,0,0,0.06234567901234567,52.37037037037036,0)" xlink:href="#ax"/><use transform="matrix(0.06234567901234567,0,0,0.06234567901234567,57.295679012345666,0)" xlink:href="#ay"/><use transform="matrix(0.06234567901234567,0,0,0.06234567901234567,69.7648148148148,0)" xlink:href="#aK"/></g><g id="an"><use transform="matrix(0.06234567901234567,0,0,0.06234567901234567,0,0)" xlink:href="#aG"/><use transform="matrix(0.06234567901234567,0,0,0.06234567901234567,12.469135802469133,0)" xlink:href="#aw"/><use transform="matrix(0.06234567901234567,0,0,0.06234567901234567,24.938271604938265,0)" xlink:href="#aQ"/><use transform="matrix(0.06234567901234567,0,0,0.06234567901234567,37.4074074074074,0)" xlink:href="#aA"/><use transform="matrix(0.06234567901234567,0,0,0.06234567901234567,49.87654320987653,0)" xlink:href="#az"/><use transform="matrix(0.06234567901234567,0,0,0.06234567901234567,56.1111111111111,0)" xlink:href="#ay"/><use transform="matrix(0.06234567901234567,0,0,0.06234567901234567,68.58024691358023,0)" xlink:href="#aN"/><use transform="matrix(0.06234567901234567,0,0,0.06234567901234567,75.99938271604935,0)" xlink:href="#aO"/></g><g id="ao"><use transform="matrix(0.06234567901234567,0,0,0.06234567901234567,0,0)" xlink:href="#aq"/><use transform="matrix(0.06234567901234567,0,0,0.06234567901234567,14.96296296296296,0)" xlink:href="#aA"/><use transform="matrix(0.06234567901234567,0,0,0.06234567901234567,27.432098765432094,0)" xlink:href="#aQ"/><use transform="matrix(0.06234567901234567,0,0,0.06234567901234567,39.90123456790123,0)" xlink:href="#aQ"/><use transform="matrix(0.06234567901234567,0,0,0.06234567901234567,52.37037037037036,0)" xlink:href="#ax"/><use transform="matrix(0.06234567901234567,0,0,0.06234567901234567,57.295679012345666,0)" xlink:href="#ay"/><use transform="matrix(0.06234567901234567,0,0,0.06234567901234567,69.7648148148148,0)" xlink:href="#aY"/><use transform="matrix(0.06234567901234567,0,0,0.06234567901234567,82.23395061728394,0)" xlink:href="#aZ"/></g><g id="ap"><use transform="matrix(0.06234567901234567,0,0,0.06234567901234567,0,0)" xlink:href="#bl"/><use transform="matrix(0.06234567901234567,0,0,0.06234567901234567,14.96296296296296,0)" xlink:href="#aA"/><use transform="matrix(0.06234567901234567,0,0,0.06234567901234567,27.432098765432094,0)" xlink:href="#ax"/><use transform="matrix(0.06234567901234567,0,0,0.06234567901234567,32.3574074074074,0)" xlink:href="#ax"/><use transform="matrix(0.06234567901234567,0,0,0.06234567901234567,37.28271604938271,0)" xlink:href="#aY"/><use transform="matrix(0.06234567901234567,0,0,0.06234567901234567,49.75185185185184,0)" xlink:href="#aZ"/></g></defs></g></svg>