<svg xmlns="http://www.w3.org/2000/svg" xmlns:xlink="http://www.w3.org/1999/xlink" xmlns:lucid="lucid" width="1522" height="1922"><g transform="translate(721 541)" lucid:page-tab-id="aKaGsgK4aAnI"><path d="M-1000-1000h2000v2500h-2000z" fill="#fff"/><path d="M-700-520h335v20l-10 10h-325z" fill="#fff"/><path d="M-365-520v20l-10 10h-325" stroke="#282c33" stroke-width="2" fill="none"/><path d="M-700-520H780v1880H-700z" stroke="#282c33" stroke-width="2" fill="none"/><use xlink:href="#a" transform="matrix(1,0,0,1,-692,-520) translate(11.395370370370415 19.488888888888887)"/><use xlink:href="#b" transform="matrix(1,0,0,1,-692,-520) translate(78.66635802469139 19.488888888888887)"/><use xlink:href="#c" transform="matrix(1,0,0,1,-692,-520) translate(133.53055555555557 19.488888888888887)"/><use xlink:href="#d" transform="matrix(1,0,0,1,-692,-520) translate(208.34537037037035 19.488888888888887)"/><path d="M-64.96-355.78v9.93m0 9.94v19.87m0 9.93v19.88m0 9.94v19.87m0 9.93v19.87m0 9.94v19.88m0 9.93v19.88m0 9.93v19.88m0 9.94v19.87m0 9.94v19.86m0 9.94v19.87m0 9.94v19.9m0 9.92V11.9m0 9.94V41.7m0 9.95v19.87m0 9.94v19.88m0 9.93v19.88m0 9.93v19.88m0 9.94v19.87m0 9.94v19.88m0 9.94v19.88m0 9.93v19.88m0 9.94v19.88m0 9.94v19.87m0 9.94v19.87m0 9.94v19.87m0 9.94v19.87m0 9.93v19.88m0 9.94v19.87m0 9.93v19.87m0 9.94v19.87m0 9.95v19.88m0 9.93v19.88m0 9.94v19.87m0 9.94v19.86m0 9.94v19.87m0 9.94v19.9m0 9.92v19.88m0 9.93V787m0 9.95v19.87m0 9.94v19.87m0 9.94v19.88m0 9.93v19.88m0 9.94v19.87m0 9.94v19.88m0 9.94v19.87m0 9.93v19.88m0 9.94v19.88m0 9.94v19.87m0 9.94v19.87m0 9.94v19.87m0 9.94v19.87m0 9.93v19.88m0 9.93v19.9m0 9.93V1264m0 9.94v19.87m0 9.95v19.88m0 9.93v9.94" stroke="#333" fill="none"/><path d="M-64.5-355.77h-.94v-.5h.95z" stroke="#333" stroke-width=".05" fill="#333"/><path d="M-64.96 1343.5v.5M-630.67-351.2v9.96m0 9.97v19.93m0 9.97v19.94m0 9.97v19.93m0 9.97v19.94m0 9.97v19.94m0 9.95v19.94m0 9.96v19.94m0 9.97V-102m0 9.97v19.94m0 9.98v19.93m0 9.98v19.94m0 9.97V17.6m0 9.97v19.93m0 9.97v19.94m0 9.97v19.94m0 9.97v19.95m0 9.97v19.93m0 9.97v19.94m0 9.97v19.93m0 9.97v19.94m0 9.97v19.94m0 9.96v19.94m0 9.97v19.94m0 9.95v19.94m0 9.96v19.94m0 9.97v19.93m0 9.97v19.94m0 9.98v19.93m0 9.98v19.94m0 9.97v19.92m0 9.97v19.93m0 9.97v19.94m0 9.96v19.94m0 9.97v19.95m0 9.97v19.93m0 9.97v19.94m0 9.97v19.93m0 9.97v19.94m0 9.97v19.93m0 9.97v19.94m0 9.97v19.93m0 9.97v19.94m0 9.96v19.94m0 9.96v19.94m0 9.97v19.94m0 9.98v19.93m0 9.98v19.94m0 9.97v19.92m0 9.97v19.93m0 9.97v19.94m0 9.96v19.94m0 9.97v19.95m0 9.97v19.93m0 9.97v19.94m0 9.97v19.93m0 9.97v9.97M-630.67-351.2v-3.5M-630.67 1323.5v.5M-316.7-355.78v9.93m0 9.94v19.87m0 9.93v19.88m0 9.94v19.87m0 9.93v19.87m0 9.94v19.88m0 9.93v19.88m0 9.93v19.88m0 9.94v19.87m0 9.94v19.86m0 9.94v19.87m0 9.94v19.9m0 9.92V11.9m0 9.94V41.7m0 9.95v19.87m0 9.94v19.88m0 9.93v19.88m0 9.93v19.88m0 9.94v19.87m0 9.94v19.88m0 9.94v19.88m0 9.93v19.88m0 9.94v19.88m0 9.94v19.87m0 9.94v19.87m0 9.94v19.87m0 9.94v19.87m0 9.93v19.88m0 9.94v19.87m0 9.93v19.87m0 9.94v19.87m0 9.95v19.88m0 9.93v19.88m0 9.94v19.87m0 9.94v19.86m0 9.94v19.87m0 9.94v19.9m0 9.92v19.88m0 9.93V787m0 9.95v19.87m0 9.94v19.87m0 9.94v19.88m0 9.93v19.88m0 9.94v19.87m0 9.94v19.88m0 9.94v19.87m0 9.93v19.88m0 9.94v19.88m0 9.94v19.87m0 9.94v19.87m0 9.94v19.87m0 9.94v19.87m0 9.93v19.88m0 9.93v19.9m0 9.93V1264m0 9.94v19.87m0 9.95v19.88m0 9.93v9.94" stroke="#333" fill="none"/><path d="M-316.23-355.77h-.95v-.5h.95z" stroke="#333" stroke-width=".05" fill="#333"/><path d="M-316.7 1343.5v.5M186.78-355.78v9.92m0 9.93v19.85m0 9.93v19.85m0 9.92v19.85m0 9.93v19.85m0 9.93v19.85m0 9.92v19.86m0 9.93v19.85m0 9.93v19.86m0 9.92v19.86m0 9.92v19.85m0 9.94v19.85m0 9.92v19.85m0 9.92v19.84m0 9.93v19.85m0 9.93v19.85m0 9.92v19.85m0 9.93v19.85m0 9.93v19.85m0 9.92v19.85m0 9.93v19.85m0 9.93v19.86m0 9.92v19.86m0 9.92V339m0 9.94v19.85m0 9.9v19.87m0 9.92v19.84m0 9.93v19.85m0 9.93v19.85m0 9.92v19.85m0 9.93v19.85m0 9.93v19.85m0 9.92V607m0 9.93v19.85m0 9.93v19.86m0 9.92v19.85m0 9.93v19.85m0 9.94v19.85m0 9.9v19.87m0 9.92v19.84m0 9.93v19.85m0 9.92V875m0 9.92v19.85m0 9.93v19.85m0 9.93v19.85m0 9.92v19.85m0 9.93v19.85m0 9.93v19.86m0 9.92v19.85m0 9.93v19.85m0 9.94V1143m0 9.9v19.86m0 9.93v19.84m0 9.93v19.85m0 9.92v19.86m0 9.92v19.85m0 9.93v19.85m0 9.92v9.93" stroke="#333" fill="none"/><path d="M187.26-355.77h-.95v-.5h.96z" stroke="#333" stroke-width=".05" fill="#333"/><path d="M186.78 1341.5v.5" stroke="#333" fill="none"/><path d="M-84.96-262.43a8 8 0 0 1 8-8h24a8 8 0 0 1 8 8V432a8 8 0 0 1-8 8h-24a8 8 0 0 1-8-8zM-335.63-281.55a8 8 0 0 1 8-8h24a8 8 0 0 1 8 8V1292a8 8 0 0 1-8 8h-24a8 8 0 0 1-8-8z" stroke="#3a414a" stroke-width="2" fill="#ced4db"/><path d="M-160-471.28a8 8 0 0 1 8-8H22.07a8 8 0 0 1 8 8v106a8 8 0 0 1-8 8H-152a8 8 0 0 1-8-8z" stroke="#3a414a" stroke-width="2" fill="#6db1ff"/><use xlink:href="#e" transform="matrix(1,0,0,1,-152,-471.28198155664086) translate(62.31481481481481 56.55555555555555)"/><path d="M91.74-471.28a8 8 0 0 1 8-8h174.08a8 8 0 0 1 8 8v106a8 8 0 0 1-8 8H99.74a8 8 0 0 1-8-8z" stroke="#3a414a" stroke-width="2" fill="#6db1ff"/><use xlink:href="#f" transform="matrix(1,0,0,1,99.7432347862864,-471.28198155664086) translate(59.87037037037037 56.55555555555555)"/><path d="M-610.92-427.7c0 10.9-8.84 19.75-19.75 19.75-10.9 0-19.75-8.84-19.75-19.75 0-10.9 8.84-19.75 19.75-19.75 10.9 0 19.75 8.85 19.75 19.75z" stroke="#333" fill="#fff"/><path d="M-630.67-407.94v47.3a27.6 27.6 0 0 0 4.28 14.75l35.73 56.45m-40-63.2l-40 63.2m0-98.75h80" stroke="#333" fill="none"/><path d="M-670.67-439.44a8 8 0 0 1 8-8h64a8 8 0 0 1 8 8v164a8 8 0 0 1-8 8h-64a8 8 0 0 1-8-8z" fill="none"/><use xlink:href="#g" transform="matrix(1,0,0,1,-750.6686171805463,-289.4449550483823) translate(107.1604938271605 14.555555555555555)"/><path d="M-627.84-203.62h145.25a.1.1 0 0 0 .12-.1.1.1 0 0 1 .1-.1h129.36M-627.82-203.62h-.52" stroke="#333" fill="none"/><path d="M-338.25-203.83l-14.27 4.63v-9.27z" stroke="#333" fill="#333"/><use xlink:href="#h" transform="matrix(1,0,0,1,-509.6351867462194,-199.6180060915137) translate(0 14.222222222222223)"/><path d="M-294.13-162.04h191.78" stroke="#333" fill="none"/><path d="M-294.12-161.57h-.5v-.95h.5z" stroke="#333" stroke-width=".05" fill="#333"/><path d="M-87.58-162.04l-14.27 4.63v-9.28z" stroke="#333" fill="#333"/><use xlink:href="#i" transform="matrix(1,0,0,1,-221.38367307549098,-158.04239234398085) translate(0 14.222222222222223)"/><use xlink:href="#j" transform="matrix(1,0,0,1,-221.38367307549098,-158.04239234398085) translate(4.938271604938272 14.222222222222223)"/><path d="M-411.74-471.28a8 8 0 0 1 8-8h174.07a8 8 0 0 1 8 8v106a8 8 0 0 1-8 8h-174.07a8 8 0 0 1-8-8z" stroke="#3a414a" stroke-width="2" fill="#6db1ff"/><use xlink:href="#k" transform="matrix(1,0,0,1,-403.7432347862864,-471.28198155664086) translate(27.30246913580246 56.55555555555555)"/><path d="M-160-100h80v20l-10 10h-70z" fill="#fff"/><path d="M-80-100v20l-10 10h-70" stroke="#282c33" stroke-width="2" fill="none"/><path d="M-160-100h900v560h-900z" stroke="#282c33" stroke-width="2" fill="none"/><use xlink:href="#l" transform="matrix(1,0,0,1,-152,-100) translate(6.061728395061735 19.488888888888887)"/><use xlink:href="#m" transform="matrix(1,0,0,1,-148,-62) translate(13.42654320987657 19.488888888888887)"/><use xlink:href="#n" transform="matrix(1,0,0,1,-148,-62) translate(74.52530864197531 19.488888888888887)"/><path d="M165.7-52a8 8 0 0 1 8-8h24a8 8 0 0 1 8 8v243.53a8 8 0 0 1-8 8h-24a8 8 0 0 1-8-8z" stroke="#3a414a" stroke-width="2" fill="#ced4db"/><path d="M-43.46-3.42h103.6a.23.23 0 0 0 .23-.23.23.23 0 0 1 .23-.23h87.72" stroke="#333" fill="none"/><path d="M-43.45-2.94h-.5v-.95h.5z" stroke="#333" stroke-width=".05" fill="#333"/><path d="M163.1-3.88L148.8.75v-9.27z" stroke="#333" fill="#333"/><use xlink:href="#o" transform="matrix(1,0,0,1,26.062833123958157,-34.81341007815469) translate(0.005000000000002558 17.955555555555552)"/><path d="M207.2 93.92h27.5a12 12 0 0 1 12 12V159a12 12 0 0 1-12 12h-11.6" stroke="#333" fill="none"/><path d="M207.22 94.4h-.5v-.95h.5z" stroke="#333" stroke-width=".05" fill="#333"/><path d="M208.32 171l14.27-4.63v9.27z" stroke="#333" fill="#333"/><use xlink:href="#p" transform="matrix(1,0,0,1,254.70730888196326,118.99652216296911) translate(0.0049999999999954525 17.955555555555552)"/><use xlink:href="#q" transform="matrix(1,0,0,1,254.70730888196326,118.99652216296911) translate(78.49820987654319 17.955555555555552)"/><path d="M207.2-24.66h27.5a12 12 0 0 1 12 12v44.2a12 12 0 0 1-12 12h-11.6" stroke="#333" fill="none"/><path d="M207.22-24.18h-.5v-.95h.5z" stroke="#333" stroke-width=".05" fill="#333"/><path d="M208.32 43.53l14.27-4.64v9.26z" stroke="#333" fill="#333"/><use xlink:href="#r" transform="matrix(1,0,0,1,254.70725653817505,-17.498460925160956) translate(12.474135802469135 17.955555555555552)"/><use xlink:href="#s" transform="matrix(1,0,0,1,254.70725653817505,-17.498460925160956) translate(97.2019135802469 17.955555555555552)"/><use xlink:href="#t" transform="matrix(1,0,0,1,254.70725653817505,-17.498460925160956) translate(0.0049999999999954525 44.888888888888886)"/><use xlink:href="#u" transform="matrix(1,0,0,1,254.70725653817505,-17.498460925160956) translate(84.73277777777776 44.888888888888886)"/><path d="M400-472a8 8 0 0 1 8-8h174.08a8 8 0 0 1 8 8v106a8 8 0 0 1-8 8H408a8 8 0 0 1-8-8z" stroke="#3a414a" stroke-width="2" fill="#6db1ff"/><use xlink:href="#v" transform="matrix(1,0,0,1,407.9999999999999,-472) translate(72.73456790123457 56.55555555555555)"/><path d="M500-356.5v9.98m0 9.97v19.96m0 9.98v19.96m0 9.97v19.97m0 9.97v19.96m0 9.97v19.96m0 9.97v19.96m0 9.97V-137m0 9.96v19.96m0 9.97v19.94m0 9.98v19.96m0 9.97v19.95m0 9.98v19.95m0 9.98v19.96m0 9.98V72.5m0 9.97v19.95m0 9.98v19.95m0 9.98v19.95m0 9.98v19.95m0 10v19.94m0 9.98v19.95m0 9.98V282m0 9.98v19.95m0 9.98v19.96m0 9.98v19.95m0 9.97v19.95m0 9.98v19.95m0 9.98v19.95m0 9.98v19.95m0 10v19.94m0 9.98v19.95m0 9.98v19.95m0 9.98v19.95m0 9.98v19.96m0 9.98v19.95m0 9.97v19.95m0 9.98v19.95m0 9.98v19.95m0 9.98v19.95m0 10v19.94m0 9.98v19.95m0 9.98v19.95m0 9.98v19.95m0 9.98v19.96m0 9.98v19.95m0 9.97v19.95m0 9.97v19.95m0 9.97v19.96m0 9.97v19.96m0 10v19.94m0 9.98v19.95m0 9.97v19.96m0 9.97v19.96m0 9.97v19.96m0 9.97v19.96m0 9.96v19.96m0 9.97v19.95m0 9.97v9.98" stroke="#333" fill="none"/><path d="M500.48-356.5h-.96v-.5h.96z" stroke="#333" stroke-width=".05" fill="#333"/><path d="M500 1349.5v.5" stroke="#333" fill="none"/><path d="M480 228a8 8 0 0 1 8-8h24a8 8 0 0 1 8 8v203.53a8 8 0 0 1-8 8h-24a8 8 0 0 1-8-8z" stroke="#3a414a" stroke-width="2" fill="#ced4db"/><path d="M521.5 246H549a12 12 0 0 1 12 12v45a12 12 0 0 1-12 12h-11.62" stroke="#333" fill="none"/><path d="M521.5 246.47h-.5v-.94h.5z" stroke="#333" stroke-width=".05" fill="#333"/><path d="M522.62 315l14.26-4.63v9.26z" stroke="#333" fill="#333"/><use xlink:href="#p" transform="matrix(1,0,0,1,568.9999427446202,267.03331662857613) translate(0.0049999999999954525 17.955555555555552)"/><use xlink:href="#q" transform="matrix(1,0,0,1,568.9999427446202,267.03331662857613) translate(78.49820987654319 17.955555555555552)"/><path d="M521.5 362H549a12 12 0 0 1 12 12v29a12 12 0 0 1-12 12h-11.62" stroke="#333" fill="none"/><path d="M521.5 362.48h-.5v-.96h.5z" stroke="#333" stroke-width=".05" fill="#333"/><path d="M522.62 415l14.26-4.63v9.26z" stroke="#333" fill="#333"/><use xlink:href="#w" transform="matrix(1,0,0,1,568.9999918763673,375.0333200677729) translate(0.0049999999999954525 17.955555555555552)"/><use xlink:href="#x" transform="matrix(1,0,0,1,568.9999918763673,375.0333200677729) translate(69.7698148148148 17.955555555555552)"/><path d="M-43.46 242H462.6" stroke="#333" fill="none"/><path d="M-43.45 242.47h-.5v-.94h.5z" stroke="#333" stroke-width=".05" fill="#333"/><path d="M477.38 242l-14.26 4.63v-9.26z" stroke="#333" fill="#333"/><use xlink:href="#o" transform="matrix(1,0,0,1,183.22833491550313,211.0666666666635) translate(0.005000000000002558 17.955555555555552)"/><path d="M-84.96 508a8 8 0 0 1 8-8h24a8 8 0 0 1 8 8v424a8 8 0 0 1-8 8h-24a8 8 0 0 1-8-8z" stroke="#3a414a" stroke-width="2" fill="#ced4db"/><path d="M-294.13 545.38h191.78" stroke="#333" fill="none"/><path d="M-294.12 545.85h-.5v-.95h.5z" stroke="#333" stroke-width=".05" fill="#333"/><path d="M-87.58 545.38l-14.27 4.63v-9.26z" stroke="#333" fill="#333"/><use xlink:href="#y" transform="matrix(1,0,0,1,-214.54971832089967,514.4452793541475) translate(0.004999999999999005 17.955555555555552)"/><path d="M-160 580h80v20l-10 10h-70z" fill="#fff"/><path d="M-80 580v20l-10 10h-70" stroke="#282c33" stroke-width="2" fill="none"/><path d="M-160 580h900v380h-900z" stroke="#282c33" stroke-width="2" fill="none"/><use xlink:href="#l" transform="matrix(1,0,0,1,-152,580) translate(6.061728395061735 19.488888888888887)"/><use xlink:href="#m" transform="matrix(1,0,0,1,-148,618) translate(13.42654320987657 19.488888888888887)"/><use xlink:href="#n" transform="matrix(1,0,0,1,-148,618) translate(74.52530864197531 19.488888888888887)"/><path d="M160 628a8 8 0 0 1 8-8h24a8 8 0 0 1 8 8v144a8 8 0 0 1-8 8h-24a8 8 0 0 1-8-8z" stroke="#3a414a" stroke-width="2" fill="#ced4db"/><path d="M-43.46 665.9H142.62" stroke="#333" fill="none"/><path d="M-43.45 666.4h-.5v-.96h.5z" stroke="#333" stroke-width=".05" fill="#333"/><path d="M157.38 665.9l-14.26 4.65v-9.27z" stroke="#333" fill="#333"/><use xlink:href="#y" transform="matrix(1,0,0,1,33.266309223236334,634.9812261714313) translate(0.004999999999999005 17.955555555555552)"/><path d="M480 828a8 8 0 0 1 8-8h24a8 8 0 0 1 8 8v104a8 8 0 0 1-8 8h-24a8 8 0 0 1-8-8z" stroke="#3a414a" stroke-width="2" fill="#ced4db"/><path d="M-43.46 845.82H462.62" stroke="#333" fill="none"/><path d="M-43.45 846.3h-.5v-.96h.5z" stroke="#333" stroke-width=".05" fill="#333"/><path d="M477.38 845.82l-14.26 4.63v-9.27z" stroke="#333" fill="#333"/><use xlink:href="#y" transform="matrix(1,0,0,1,193.26632409341366,814.8855950252868) translate(0.004999999999999005 17.955555555555552)"/><path d="M201.5 667.55H229a12 12 0 0 1 12 12v42.7a12 12 0 0 1-12 12h-11.62" stroke="#333" fill="none"/><path d="M201.5 668.03h-.5v-.95h.5z" stroke="#333" stroke-width=".05" fill="#333"/><path d="M202.62 734.25l14.26-4.63v9.27z" stroke="#333" fill="#333"/><use xlink:href="#z" transform="matrix(1,0,0,1,248.99997378792142,687.4368706218412) translate(0.0049999999999954525 17.955555555555552)"/><use xlink:href="#A" transform="matrix(1,0,0,1,248.99997378792142,687.4368706218412) translate(54.74450617283949 17.955555555555552)"/><use xlink:href="#q" transform="matrix(1,0,0,1,248.99997378792142,687.4368706218412) translate(145.64450617283947 17.955555555555552)"/><path d="M521.5 846.9H549a12 12 0 0 1 12 12v30.85a12 12 0 0 1-12 12h-11.62" stroke="#333" fill="none"/><path d="M521.5 847.38h-.5v-.95h.5z" stroke="#333" stroke-width=".05" fill="#333"/><path d="M522.62 901.75l14.26-4.63v9.27z" stroke="#333" fill="#333"/><use xlink:href="#z" transform="matrix(1,0,0,1,568.9999709144199,847.3956647567056) translate(0.0049999999999954525 17.955555555555552)"/><use xlink:href="#B" transform="matrix(1,0,0,1,568.9999709144199,847.3956647567056) translate(54.74450617283949 17.955555555555552)"/><use xlink:href="#C" transform="matrix(1,0,0,1,568.9999709144199,847.3956647567056) translate(31.115493827160492 44.888888888888886)"/><path d="M160 1058.42a8 8 0 0 1 8-8h24a8 8 0 0 1 8 8V1152a8 8 0 0 1-8 8h-24a8 8 0 0 1-8-8zM480 1188a8 8 0 0 1 8-8h24a8 8 0 0 1 8 8v84a8 8 0 0 1-8 8h-24a8 8 0 0 1-8-8z" stroke="#3a414a" stroke-width="2" fill="#ced4db"/><path d="M201.5 1077.14H229a12 12 0 0 1 12 12v31.12a12 12 0 0 1-12 12h-11.62" stroke="#333" fill="none"/><path d="M201.5 1077.62h-.5v-.95h.5z" stroke="#333" stroke-width=".05" fill="#333"/><path d="M202.62 1132.26l14.26-4.64v9.27z" stroke="#333" fill="#333"/><use xlink:href="#D" transform="matrix(1,0,0,1,248.9999789034928,1091.233593504461) translate(0.005000000000002558 17.955555555555552)"/><path d="M521.5 1196.67H549a12 12 0 0 1 12 12v34.26a12 12 0 0 1-12 12h-11.62" stroke="#333" fill="none"/><path d="M521.5 1197.14h-.5v-.95h.5z" stroke="#333" stroke-width=".05" fill="#333"/><path d="M522.62 1254.93l14.26-4.63v9.27z" stroke="#333" fill="#333"/><use xlink:href="#D" transform="matrix(1,0,0,1,568.9999796834558,1212.3338757404022) translate(0.005000000000002558 17.955555555555552)"/><path d="M-43.46 1074h186.08M-43.45 1074h-.5" stroke="#333" fill="none"/><path d="M157.38 1074l-14.26 4.63v-9.27z" stroke="#333" fill="#333"/><g><use xlink:href="#D" transform="matrix(1,0,0,1,25.16139397311686,1043.058643610032) translate(0.005000000000002558 17.955555555555552)"/></g><path d="M-43.46 1202.97H462.62M-43.45 1202.97h-.5" stroke="#333" fill="none"/><path d="M477.38 1202.97l-14.26 4.63v-9.27z" stroke="#333" fill="#333"/><g><use xlink:href="#D" transform="matrix(1,0,0,1,185.16140220447443,1172.0328432583497) translate(0.005000000000002558 17.955555555555552)"/></g><path d="M-84.96 1008a8 8 0 0 1 8-8h24a8 8 0 0 1 8 8v284a8 8 0 0 1-8 8h-24a8 8 0 0 1-8-8z" stroke="#3a414a" stroke-width="2" fill="#ced4db"/><path d="M-160 980h80v20l-10 10h-70z" fill="#fff"/><path d="M-80 980v20l-10 10h-70" stroke="#282c33" stroke-width="2" fill="none"/><path d="M-160 980h900v340h-900z" stroke="#282c33" stroke-width="2" fill="none"/><g><use xlink:href="#l" transform="matrix(1,0,0,1,-152,980) translate(6.061728395061735 19.488888888888887)"/></g><g><use xlink:href="#m" transform="matrix(1,0,0,1,-148,1018) translate(13.42654320987657 19.488888888888887)"/><use xlink:href="#n" transform="matrix(1,0,0,1,-148,1018) translate(74.52530864197531 19.488888888888887)"/></g><path d="M-294.13 1042.57h191.78" stroke="#333" fill="none"/><path d="M-294.12 1043.04h-.5v-.95h.5z" stroke="#333" stroke-width=".05" fill="#333"/><path d="M-87.58 1042.57l-14.27 4.63v-9.27z" stroke="#333" fill="#333"/><g><use xlink:href="#D" transform="matrix(1,0,0,1,-222.654828697444,1011.6332502407138) translate(0.005000000000002558 17.955555555555552)"/></g><defs><path fill="#282c33" d="M143 4C61 4 22-44 18-125c-5-107 100-154 193-111 17 8 29 25 37 43l-32 9c-13-25-37-40-76-40-61 0-88 39-88 99 0 61 29 100 91 101 35 0 62-11 79-27v-45h-74v-28h105v86C228-13 192 4 143 4" id="E"/><path fill="#282c33" d="M141-36C126-15 110 5 73 4 37 3 15-17 15-53c-1-64 63-63 125-63 3-35-9-54-41-54-24 1-41 7-42 31l-33-3c5-37 33-52 76-52 45 0 72 20 72 64v82c-1 20 7 32 28 27v20c-31 9-61-2-59-35zM48-53c0 20 12 33 32 33 41-3 63-29 60-74-43 2-92-5-92 41" id="F"/><path fill="#282c33" d="M210-169c-67 3-38 105-44 169h-31v-121c0-29-5-50-35-48C34-165 62-65 56 0H25l-1-190h30c1 10-1 24 2 32 10-44 99-50 107 0 11-21 27-35 58-36 85-2 47 119 55 194h-31v-121c0-29-5-49-35-48" id="G"/><path fill="#282c33" d="M100-194c63 0 86 42 84 106H49c0 40 14 67 53 68 26 1 43-12 49-29l28 8c-11 28-37 45-77 45C44 4 14-33 15-96c1-61 26-98 85-98zm52 81c6-60-76-77-97-28-3 7-6 17-6 28h103" id="H"/><g id="a"><use transform="matrix(0.06234567901234567,0,0,0.06234567901234567,0,0)" xlink:href="#E"/><use transform="matrix(0.06234567901234567,0,0,0.06234567901234567,17.456790123456788,0)" xlink:href="#F"/><use transform="matrix(0.06234567901234567,0,0,0.06234567901234567,29.92592592592592,0)" xlink:href="#G"/><use transform="matrix(0.06234567901234567,0,0,0.06234567901234567,48.56728395061727,0)" xlink:href="#H"/></g><path fill="#282c33" d="M135-143c-3-34-86-38-87 0 15 53 115 12 119 90S17 21 10-45l28-5c4 36 97 45 98 0-10-56-113-15-118-90-4-57 82-63 122-42 12 7 21 19 24 35" id="I"/><path fill="#282c33" d="M59-47c-2 24 18 29 38 22v24C64 9 27 4 27-40v-127H5v-23h24l9-43h21v43h35v23H59v120" id="J"/><g id="b"><use transform="matrix(0.06234567901234567,0,0,0.06234567901234567,0,0)" xlink:href="#I"/><use transform="matrix(0.06234567901234567,0,0,0.06234567901234567,11.22222222222222,0)" xlink:href="#J"/><use transform="matrix(0.06234567901234567,0,0,0.06234567901234567,17.456790123456784,0)" xlink:href="#F"/><use transform="matrix(0.06234567901234567,0,0,0.06234567901234567,29.925925925925917,0)" xlink:href="#J"/><use transform="matrix(0.06234567901234567,0,0,0.06234567901234567,36.16049382716048,0)" xlink:href="#H"/></g><path fill="#282c33" d="M84 4C-5 8 30-112 23-190h32v120c0 31 7 50 39 49 72-2 45-101 50-169h31l1 190h-30c-1-10 1-25-2-33-11 22-28 36-60 37" id="K"/><path fill="#282c33" d="M115-194c55 1 70 41 70 98S169 2 115 4C84 4 66-9 55-30l1 105H24l-1-265h31l2 30c10-21 28-34 59-34zm-8 174c40 0 45-34 45-75s-6-73-45-74c-42 0-51 32-51 76 0 43 10 73 51 73" id="L"/><path fill="#282c33" d="M85-194c31 0 48 13 60 33l-1-100h32l1 261h-30c-2-10 0-23-3-31C134-8 116 4 85 4 32 4 16-35 15-94c0-66 23-100 70-100zm9 24c-40 0-46 34-46 75 0 40 6 74 45 74 42 0 51-32 51-76 0-42-9-74-50-73" id="M"/><g id="c"><use transform="matrix(0.06234567901234567,0,0,0.06234567901234567,0,0)" xlink:href="#K"/><use transform="matrix(0.06234567901234567,0,0,0.06234567901234567,12.469135802469133,0)" xlink:href="#L"/><use transform="matrix(0.06234567901234567,0,0,0.06234567901234567,24.938271604938265,0)" xlink:href="#M"/><use transform="matrix(0.06234567901234567,0,0,0.06234567901234567,37.4074074074074,0)" xlink:href="#F"/><use transform="matrix(0.06234567901234567,0,0,0.06234567901234567,49.87654320987653,0)" xlink:href="#J"/><use transform="matrix(0.06234567901234567,0,0,0.06234567901234567,56.1111111111111,0)" xlink:href="#H"/></g><path fill="#282c33" d="M145-31C134-9 116 4 85 4 32 4 16-35 15-94c0-59 17-99 70-100 32-1 48 14 60 33 0-11-1-24 2-32h30l-1 268h-32zM93-21c41 0 51-33 51-76s-8-73-50-73c-40 0-46 35-46 75s5 74 45 74" id="N"/><path fill="#282c33" d="M117-194c89-4 53 116 60 194h-32v-121c0-31-8-49-39-48C34-167 62-67 57 0H25l-1-190h30c1 10-1 24 2 32 11-22 29-35 61-36" id="O"/><path fill="#282c33" d="M96-169c-40 0-48 33-48 73s9 75 48 75c24 0 41-14 43-38l32 2c-6 37-31 61-74 61-59 0-76-41-82-99-10-93 101-131 147-64 4 7 5 14 7 22l-32 3c-4-21-16-35-41-35" id="P"/><g id="d"><use transform="matrix(0.06234567901234567,0,0,0.06234567901234567,0,0)" xlink:href="#I"/><use transform="matrix(0.06234567901234567,0,0,0.06234567901234567,11.22222222222222,0)" xlink:href="#H"/><use transform="matrix(0.06234567901234567,0,0,0.06234567901234567,23.691358024691354,0)" xlink:href="#N"/><use transform="matrix(0.06234567901234567,0,0,0.06234567901234567,36.16049382716049,0)" xlink:href="#K"/><use transform="matrix(0.06234567901234567,0,0,0.06234567901234567,48.62962962962962,0)" xlink:href="#H"/><use transform="matrix(0.06234567901234567,0,0,0.06234567901234567,61.09876543209875,0)" xlink:href="#O"/><use transform="matrix(0.06234567901234567,0,0,0.06234567901234567,73.56790123456788,0)" xlink:href="#P"/><use transform="matrix(0.06234567901234567,0,0,0.06234567901234567,84.7901234567901,0)" xlink:href="#H"/></g><path d="M185-189c-5-48-123-54-124 2 14 75 158 14 163 119 3 78-121 87-175 55-17-10-28-26-33-46l33-7c5 56 141 63 141-1 0-78-155-14-162-118-5-82 145-84 179-34 5 7 8 16 11 25" id="Q"/><path d="M96-169c-40 0-48 33-48 73s9 75 48 75c24 0 41-14 43-38l32 2c-6 37-31 61-74 61-59 0-76-41-82-99-10-93 101-131 147-64 4 7 5 14 7 22l-32 3c-4-21-16-35-41-35" id="R"/><path d="M100-194c63 0 86 42 84 106H49c0 40 14 67 53 68 26 1 43-12 49-29l28 8c-11 28-37 45-77 45C44 4 14-33 15-96c1-61 26-98 85-98zm52 81c6-60-76-77-97-28-3 7-6 17-6 28h103" id="S"/><path d="M117-194c89-4 53 116 60 194h-32v-121c0-31-8-49-39-48C34-167 62-67 57 0H25l-1-190h30c1 10-1 24 2 32 11-22 29-35 61-36" id="T"/><g id="e"><use transform="matrix(0.04938271604938272,0,0,0.04938271604938272,0,0)" xlink:href="#Q"/><use transform="matrix(0.04938271604938272,0,0,0.04938271604938272,11.851851851851853,0)" xlink:href="#R"/><use transform="matrix(0.04938271604938272,0,0,0.04938271604938272,20.74074074074074,0)" xlink:href="#S"/><use transform="matrix(0.04938271604938272,0,0,0.04938271604938272,30.617283950617285,0)" xlink:href="#T"/><use transform="matrix(0.04938271604938272,0,0,0.04938271604938272,40.49382716049383,0)" xlink:href="#S"/></g><path d="M30-248c87 1 191-15 191 75 0 78-77 80-158 76V0H30v-248zm33 125c57 0 124 11 124-50 0-59-68-47-124-48v98" id="U"/><path d="M141-36C126-15 110 5 73 4 37 3 15-17 15-53c-1-64 63-63 125-63 3-35-9-54-41-54-24 1-41 7-42 31l-33-3c5-37 33-52 76-52 45 0 72 20 72 64v82c-1 20 7 32 28 27v20c-31 9-61-2-59-35zM48-53c0 20 12 33 32 33 41-3 63-29 60-74-43 2-92-5-92 41" id="V"/><path d="M85-194c31 0 48 13 60 33l-1-100h32l1 261h-30c-2-10 0-23-3-31C134-8 116 4 85 4 32 4 16-35 15-94c0-66 23-100 70-100zm9 24c-40 0-46 34-46 75 0 40 6 74 45 74 42 0 51-32 51-76 0-42-9-74-50-73" id="W"/><path d="M24 0v-261h32V0H24" id="X"/><g id="f"><use transform="matrix(0.04938271604938272,0,0,0.04938271604938272,0,0)" xlink:href="#U"/><use transform="matrix(0.04938271604938272,0,0,0.04938271604938272,11.851851851851853,0)" xlink:href="#V"/><use transform="matrix(0.04938271604938272,0,0,0.04938271604938272,21.7283950617284,0)" xlink:href="#W"/><use transform="matrix(0.04938271604938272,0,0,0.04938271604938272,31.60493827160494,0)" xlink:href="#W"/><use transform="matrix(0.04938271604938272,0,0,0.04938271604938272,41.48148148148149,0)" xlink:href="#X"/><use transform="matrix(0.04938271604938272,0,0,0.04938271604938272,45.38271604938272,0)" xlink:href="#S"/></g><path d="M140-251c81 0 123 46 123 126C263-46 219 4 140 4 59 4 17-45 17-125s42-126 123-126zm0 227c63 0 89-41 89-101s-29-99-89-99c-61 0-89 39-89 99S79-25 140-24" id="Y"/><g id="g"><use transform="matrix(0.04938271604938272,0,0,0.04938271604938272,0,0)" xlink:href="#Y"/><use transform="matrix(0.04938271604938272,0,0,0.04938271604938272,13.827160493827162,0)" xlink:href="#Q"/></g><path d="M84 4C-5 8 30-112 23-190h32v120c0 31 7 50 39 49 72-2 45-101 50-169h31l1 190h-30c-1-10 1-25-2-33-11 22-28 36-60 37" id="Z"/><path d="M115-194c55 1 70 41 70 98S169 2 115 4C84 4 66-9 55-30l1 105H24l-1-265h31l2 30c10-21 28-34 59-34zm-8 174c40 0 45-34 45-75s-6-73-45-74c-42 0-51 32-51 76 0 43 10 73 51 73" id="aa"/><path d="M59-47c-2 24 18 29 38 22v24C64 9 27 4 27-40v-127H5v-23h24l9-43h21v43h35v23H59v120" id="ab"/><g id="h"><use transform="matrix(0.04938271604938272,0,0,0.04938271604938272,0,0)" xlink:href="#Z"/><use transform="matrix(0.04938271604938272,0,0,0.04938271604938272,9.876543209876544,0)" xlink:href="#aa"/><use transform="matrix(0.04938271604938272,0,0,0.04938271604938272,19.75308641975309,0)" xlink:href="#W"/><use transform="matrix(0.04938271604938272,0,0,0.04938271604938272,29.629629629629633,0)" xlink:href="#V"/><use transform="matrix(0.04938271604938272,0,0,0.04938271604938272,39.50617283950618,0)" xlink:href="#ab"/><use transform="matrix(0.04938271604938272,0,0,0.04938271604938272,44.44444444444445,0)" xlink:href="#S"/></g><path d="M232-93c-1 65-40 97-104 97C67 4 28-28 28-90v-158h33c8 89-33 224 67 224 102 0 64-133 71-224h33v155" id="ac"/><g id="j"><use transform="matrix(0.04938271604938272,0,0,0.04938271604938272,0,0)" xlink:href="#ac"/><use transform="matrix(0.04938271604938272,0,0,0.04938271604938272,12.790123456790125,0)" xlink:href="#aa"/><use transform="matrix(0.04938271604938272,0,0,0.04938271604938272,22.66666666666667,0)" xlink:href="#W"/><use transform="matrix(0.04938271604938272,0,0,0.04938271604938272,32.543209876543216,0)" xlink:href="#V"/><use transform="matrix(0.04938271604938272,0,0,0.04938271604938272,42.41975308641976,0)" xlink:href="#ab"/><use transform="matrix(0.04938271604938272,0,0,0.04938271604938272,47.35802469135803,0)" xlink:href="#S"/></g><path d="M100-194c62-1 85 37 85 99 1 63-27 99-86 99S16-35 15-95c0-66 28-99 85-99zM99-20c44 1 53-31 53-75 0-43-8-75-51-75s-53 32-53 75 10 74 51 75" id="ad"/><path d="M177-190C167-65 218 103 67 71c-23-6-38-20-44-43l32-5c15 47 100 32 89-28v-30C133-14 115 1 83 1 29 1 15-40 15-95c0-56 16-97 71-98 29-1 48 16 59 35 1-10 0-23 2-32h30zM94-22c36 0 50-32 50-73 0-42-14-75-50-75-39 0-46 34-46 75s6 73 46 73" id="ae"/><path d="M127-220V0H93v-220H8v-28h204v28h-85" id="af"/><path d="M106-169C34-169 62-67 57 0H25v-261h32l-1 103c12-21 28-36 61-36 89 0 53 116 60 194h-32v-121c2-32-8-49-39-48" id="ag"/><path d="M143 4C61 4 22-44 18-125c-5-107 100-154 193-111 17 8 29 25 37 43l-32 9c-13-25-37-40-76-40-61 0-88 39-88 99 0 61 29 100 91 101 35 0 62-11 79-27v-45h-74v-28h105v86C228-13 192 4 143 4" id="ah"/><path d="M210-169c-67 3-38 105-44 169h-31v-121c0-29-5-50-35-48C34-165 62-65 56 0H25l-1-190h30c1 10-1 24 2 32 10-44 99-50 107 0 11-21 27-35 58-36 85-2 47 119 55 194h-31v-121c0-29-5-49-35-48" id="ai"/><g id="k"><use transform="matrix(0.04938271604938272,0,0,0.04938271604938272,0,0)" xlink:href="#U"/><use transform="matrix(0.04938271604938272,0,0,0.04938271604938272,11.851851851851853,0)" xlink:href="#ad"/><use transform="matrix(0.04938271604938272,0,0,0.04938271604938272,21.7283950617284,0)" xlink:href="#T"/><use transform="matrix(0.04938271604938272,0,0,0.04938271604938272,31.60493827160494,0)" xlink:href="#ae"/><use transform="matrix(0.04938271604938272,0,0,0.04938271604938272,41.48148148148149,0)" xlink:href="#af"/><use transform="matrix(0.04938271604938272,0,0,0.04938271604938272,52.2962962962963,0)" xlink:href="#ag"/><use transform="matrix(0.04938271604938272,0,0,0.04938271604938272,62.17283950617284,0)" xlink:href="#S"/><use transform="matrix(0.04938271604938272,0,0,0.04938271604938272,72.0493827160494,0)" xlink:href="#ah"/><use transform="matrix(0.04938271604938272,0,0,0.04938271604938272,85.87654320987656,0)" xlink:href="#V"/><use transform="matrix(0.04938271604938272,0,0,0.04938271604938272,95.7530864197531,0)" xlink:href="#ai"/><use transform="matrix(0.04938271604938272,0,0,0.04938271604938272,110.51851851851853,0)" xlink:href="#S"/></g><path fill="#282c33" d="M30 0v-248h33v221h125V0H30" id="aj"/><path fill="#282c33" d="M100-194c62-1 85 37 85 99 1 63-27 99-86 99S16-35 15-95c0-66 28-99 85-99zM99-20c44 1 53-31 53-75 0-43-8-75-51-75s-53 32-53 75 10 74 51 75" id="ak"/><g id="l"><use transform="matrix(0.06234567901234567,0,0,0.06234567901234567,0,0)" xlink:href="#aj"/><use transform="matrix(0.06234567901234567,0,0,0.06234567901234567,12.469135802469133,0)" xlink:href="#ak"/><use transform="matrix(0.06234567901234567,0,0,0.06234567901234567,24.938271604938265,0)" xlink:href="#ak"/><use transform="matrix(0.06234567901234567,0,0,0.06234567901234567,37.4074074074074,0)" xlink:href="#L"/></g><path fill="#282c33" d="M26 75v-336h71v23H56V52h41v23H26" id="al"/><path fill="#282c33" d="M106-169C34-169 62-67 57 0H25v-261h32l-1 103c12-21 28-36 61-36 89 0 53 116 60 194h-32v-121c2-32-8-49-39-48" id="am"/><g id="m"><use transform="matrix(0.06234567901234567,0,0,0.06234567901234567,0,0)" xlink:href="#al"/><use transform="matrix(0.06234567901234567,0,0,0.06234567901234567,6.234567901234566,0)" xlink:href="#H"/><use transform="matrix(0.06234567901234567,0,0,0.06234567901234567,18.7037037037037,0)" xlink:href="#F"/><use transform="matrix(0.06234567901234567,0,0,0.06234567901234567,31.17283950617283,0)" xlink:href="#P"/><use transform="matrix(0.06234567901234567,0,0,0.06234567901234567,42.39506172839505,0)" xlink:href="#am"/></g><path fill="#282c33" d="M140-251c81 0 123 46 123 126C263-46 219 4 140 4 59 4 17-45 17-125s42-126 123-126zm0 227c63 0 89-41 89-101s-29-99-89-99c-61 0-89 39-89 99S79-25 140-24" id="an"/><path fill="#282c33" d="M115-194c53 0 69 39 70 98 0 66-23 100-70 100C84 3 66-7 56-30L54 0H23l1-261h32v101c10-23 28-34 59-34zm-8 174c40 0 45-34 45-75 0-40-5-75-45-74-42 0-51 32-51 76 0 43 10 73 51 73" id="ao"/><path fill="#282c33" d="M24-231v-30h32v30H24zM-9 49c24 4 33-6 33-30v-209h32V24c2 40-23 58-65 49V49" id="ap"/><path fill="#282c33" d="M3 75V52h41v-290H3v-23h71V75H3" id="aq"/><g id="n"><use transform="matrix(0.06234567901234567,0,0,0.06234567901234567,0,0)" xlink:href="#E"/><use transform="matrix(0.06234567901234567,0,0,0.06234567901234567,17.456790123456788,0)" xlink:href="#F"/><use transform="matrix(0.06234567901234567,0,0,0.06234567901234567,29.92592592592592,0)" xlink:href="#G"/><use transform="matrix(0.06234567901234567,0,0,0.06234567901234567,48.56728395061727,0)" xlink:href="#H"/><use transform="matrix(0.06234567901234567,0,0,0.06234567901234567,61.036419753086406,0)" xlink:href="#an"/><use transform="matrix(0.06234567901234567,0,0,0.06234567901234567,78.49320987654319,0)" xlink:href="#ao"/><use transform="matrix(0.06234567901234567,0,0,0.06234567901234567,90.96234567901232,0)" xlink:href="#ap"/><use transform="matrix(0.06234567901234567,0,0,0.06234567901234567,95.88765432098762,0)" xlink:href="#H"/><use transform="matrix(0.06234567901234567,0,0,0.06234567901234567,108.35679012345676,0)" xlink:href="#P"/><use transform="matrix(0.06234567901234567,0,0,0.06234567901234567,119.57901234567898,0)" xlink:href="#J"/><use transform="matrix(0.06234567901234567,0,0,0.06234567901234567,125.81358024691355,0)" xlink:href="#aq"/></g><g id="o"><use transform="matrix(0.06234567901234567,0,0,0.06234567901234567,0,0)" xlink:href="#K"/><use transform="matrix(0.06234567901234567,0,0,0.06234567901234567,12.469135802469133,0)" xlink:href="#L"/><use transform="matrix(0.06234567901234567,0,0,0.06234567901234567,24.938271604938265,0)" xlink:href="#M"/><use transform="matrix(0.06234567901234567,0,0,0.06234567901234567,37.4074074074074,0)" xlink:href="#F"/><use transform="matrix(0.06234567901234567,0,0,0.06234567901234567,49.87654320987653,0)" xlink:href="#J"/><use transform="matrix(0.06234567901234567,0,0,0.06234567901234567,56.1111111111111,0)" xlink:href="#H"/></g><path fill="#282c33" d="M232-93c-1 65-40 97-104 97C67 4 28-28 28-90v-158h33c8 89-33 224 67 224 102 0 64-133 71-224h33v155" id="ar"/><g id="p"><use transform="matrix(0.06234567901234567,0,0,0.06234567901234567,0,0)" xlink:href="#ar"/><use transform="matrix(0.06234567901234567,0,0,0.06234567901234567,16.147530864197527,0)" xlink:href="#L"/><use transform="matrix(0.06234567901234567,0,0,0.06234567901234567,28.61666666666666,0)" xlink:href="#M"/><use transform="matrix(0.06234567901234567,0,0,0.06234567901234567,41.08580246913579,0)" xlink:href="#F"/><use transform="matrix(0.06234567901234567,0,0,0.06234567901234567,53.554938271604925,0)" xlink:href="#J"/><use transform="matrix(0.06234567901234567,0,0,0.06234567901234567,59.789506172839495,0)" xlink:href="#H"/></g><path fill="#282c33" d="M24-231v-30h32v30H24zM24 0v-190h32V0H24" id="as"/><g id="q"><use transform="matrix(0.06234567901234567,0,0,0.06234567901234567,0,0)" xlink:href="#L"/><use transform="matrix(0.06234567901234567,0,0,0.06234567901234567,12.469135802469133,0)" xlink:href="#ak"/><use transform="matrix(0.06234567901234567,0,0,0.06234567901234567,24.938271604938265,0)" xlink:href="#I"/><use transform="matrix(0.06234567901234567,0,0,0.06234567901234567,36.16049382716049,0)" xlink:href="#as"/><use transform="matrix(0.06234567901234567,0,0,0.06234567901234567,41.08580246913579,0)" xlink:href="#J"/><use transform="matrix(0.06234567901234567,0,0,0.06234567901234567,47.320370370370355,0)" xlink:href="#as"/><use transform="matrix(0.06234567901234567,0,0,0.06234567901234567,52.24567901234566,0)" xlink:href="#ak"/><use transform="matrix(0.06234567901234567,0,0,0.06234567901234567,64.71481481481479,0)" xlink:href="#O"/></g><path fill="#282c33" d="M114-163C36-179 61-72 57 0H25l-1-190h30c1 12-1 29 2 39 6-27 23-49 58-41v29" id="at"/><g id="r"><use transform="matrix(0.06234567901234567,0,0,0.06234567901234567,0,0)" xlink:href="#L"/><use transform="matrix(0.06234567901234567,0,0,0.06234567901234567,12.469135802469133,0)" xlink:href="#at"/><use transform="matrix(0.06234567901234567,0,0,0.06234567901234567,19.888271604938268,0)" xlink:href="#ak"/><use transform="matrix(0.06234567901234567,0,0,0.06234567901234567,32.3574074074074,0)" xlink:href="#P"/><use transform="matrix(0.06234567901234567,0,0,0.06234567901234567,43.57962962962962,0)" xlink:href="#H"/><use transform="matrix(0.06234567901234567,0,0,0.06234567901234567,56.048765432098755,0)" xlink:href="#I"/><use transform="matrix(0.06234567901234567,0,0,0.06234567901234567,67.27098765432098,0)" xlink:href="#I"/></g><path fill="#282c33" d="M185-189c-5-48-123-54-124 2 14 75 158 14 163 119 3 78-121 87-175 55-17-10-28-26-33-46l33-7c5 56 141 63 141-1 0-78-155-14-162-118-5-82 145-84 179-34 5 7 8 16 11 25" id="au"/><path fill="#282c33" d="M177-190C167-65 218 103 67 71c-23-6-38-20-44-43l32-5c15 47 100 32 89-28v-30C133-14 115 1 83 1 29 1 15-40 15-95c0-56 16-97 71-98 29-1 48 16 59 35 1-10 0-23 2-32h30zM94-22c36 0 50-32 50-73 0-42-14-75-50-75-39 0-46 34-46 75s6 73 46 73" id="av"/><path fill="#282c33" d="M24 0v-261h32V0H24" id="aw"/><g id="s"><use transform="matrix(0.06234567901234567,0,0,0.06234567901234567,0,0)" xlink:href="#ar"/><use transform="matrix(0.06234567901234567,0,0,0.06234567901234567,16.147530864197527,0)" xlink:href="#L"/><use transform="matrix(0.06234567901234567,0,0,0.06234567901234567,28.61666666666666,0)" xlink:href="#au"/><use transform="matrix(0.06234567901234567,0,0,0.06234567901234567,43.57962962962962,0)" xlink:href="#as"/><use transform="matrix(0.06234567901234567,0,0,0.06234567901234567,48.50493827160493,0)" xlink:href="#av"/><use transform="matrix(0.06234567901234567,0,0,0.06234567901234567,60.97407407407406,0)" xlink:href="#O"/><use transform="matrix(0.06234567901234567,0,0,0.06234567901234567,73.4432098765432,0)" xlink:href="#F"/><use transform="matrix(0.06234567901234567,0,0,0.06234567901234567,85.91234567901233,0)" xlink:href="#aw"/></g><g id="t"><use transform="matrix(0.06234567901234567,0,0,0.06234567901234567,0,0)" xlink:href="#L"/><use transform="matrix(0.06234567901234567,0,0,0.06234567901234567,12.469135802469133,0)" xlink:href="#at"/><use transform="matrix(0.06234567901234567,0,0,0.06234567901234567,19.888271604938268,0)" xlink:href="#ak"/><use transform="matrix(0.06234567901234567,0,0,0.06234567901234567,32.3574074074074,0)" xlink:href="#P"/><use transform="matrix(0.06234567901234567,0,0,0.06234567901234567,43.57962962962962,0)" xlink:href="#H"/><use transform="matrix(0.06234567901234567,0,0,0.06234567901234567,56.048765432098755,0)" xlink:href="#I"/><use transform="matrix(0.06234567901234567,0,0,0.06234567901234567,67.27098765432098,0)" xlink:href="#I"/></g><path fill="#282c33" d="M206 0h-36l-40-164L89 0H53L-1-190h32L70-26l43-164h34l41 164 42-164h31" id="ax"/><g id="u"><use transform="matrix(0.06234567901234567,0,0,0.06234567901234567,0,0)" xlink:href="#M"/><use transform="matrix(0.06234567901234567,0,0,0.06234567901234567,12.469135802469133,0)" xlink:href="#ak"/><use transform="matrix(0.06234567901234567,0,0,0.06234567901234567,24.938271604938265,0)" xlink:href="#ax"/><use transform="matrix(0.06234567901234567,0,0,0.06234567901234567,41.08580246913579,0)" xlink:href="#O"/><use transform="matrix(0.06234567901234567,0,0,0.06234567901234567,53.554938271604925,0)" xlink:href="#au"/><use transform="matrix(0.06234567901234567,0,0,0.06234567901234567,68.51790123456789,0)" xlink:href="#as"/><use transform="matrix(0.06234567901234567,0,0,0.06234567901234567,73.4432098765432,0)" xlink:href="#av"/><use transform="matrix(0.06234567901234567,0,0,0.06234567901234567,85.91234567901233,0)" xlink:href="#O"/><use transform="matrix(0.06234567901234567,0,0,0.06234567901234567,98.38148148148147,0)" xlink:href="#F"/><use transform="matrix(0.06234567901234567,0,0,0.06234567901234567,110.85061728395061,0)" xlink:href="#aw"/></g><path d="M160-131c35 5 61 23 61 61C221 17 115-2 30 0v-248c76 3 177-17 177 60 0 33-19 50-47 57zm-97-11c50-1 110 9 110-42 0-47-63-36-110-37v79zm0 115c55-2 124 14 124-45 0-56-70-42-124-44v89" id="ay"/><g id="v"><use transform="matrix(0.04938271604938272,0,0,0.04938271604938272,0,0)" xlink:href="#ay"/><use transform="matrix(0.04938271604938272,0,0,0.04938271604938272,11.851851851851853,0)" xlink:href="#V"/><use transform="matrix(0.04938271604938272,0,0,0.04938271604938272,21.7283950617284,0)" xlink:href="#X"/><use transform="matrix(0.04938271604938272,0,0,0.04938271604938272,25.629629629629633,0)" xlink:href="#X"/></g><path fill="#282c33" d="M212-179c-10-28-35-45-73-45-59 0-87 40-87 99 0 60 29 101 89 101 43 0 62-24 78-52l27 14C228-24 195 4 139 4 59 4 22-46 18-125c-6-104 99-153 187-111 19 9 31 26 39 46" id="az"/><path fill="#282c33" d="M143 0L79-87 56-68V0H24v-261h32v163l83-92h37l-77 82L181 0h-38" id="aA"/><g id="w"><use transform="matrix(0.06234567901234567,0,0,0.06234567901234567,0,0)" xlink:href="#az"/><use transform="matrix(0.06234567901234567,0,0,0.06234567901234567,16.147530864197527,0)" xlink:href="#am"/><use transform="matrix(0.06234567901234567,0,0,0.06234567901234567,28.61666666666666,0)" xlink:href="#H"/><use transform="matrix(0.06234567901234567,0,0,0.06234567901234567,41.08580246913579,0)" xlink:href="#P"/><use transform="matrix(0.06234567901234567,0,0,0.06234567901234567,52.308024691358014,0)" xlink:href="#aA"/></g><g id="x"><use transform="matrix(0.06234567901234567,0,0,0.06234567901234567,0,0)" xlink:href="#az"/><use transform="matrix(0.06234567901234567,0,0,0.06234567901234567,16.147530864197527,0)" xlink:href="#ak"/><use transform="matrix(0.06234567901234567,0,0,0.06234567901234567,28.61666666666666,0)" xlink:href="#aw"/><use transform="matrix(0.06234567901234567,0,0,0.06234567901234567,33.541975308641966,0)" xlink:href="#aw"/><use transform="matrix(0.06234567901234567,0,0,0.06234567901234567,38.46728395061727,0)" xlink:href="#as"/><use transform="matrix(0.06234567901234567,0,0,0.06234567901234567,43.39259259259258,0)" xlink:href="#I"/><use transform="matrix(0.06234567901234567,0,0,0.06234567901234567,54.6148148148148,0)" xlink:href="#as"/><use transform="matrix(0.06234567901234567,0,0,0.06234567901234567,59.540123456790106,0)" xlink:href="#ak"/><use transform="matrix(0.06234567901234567,0,0,0.06234567901234567,72.00925925925924,0)" xlink:href="#O"/></g><g id="y"><use transform="matrix(0.06234567901234567,0,0,0.06234567901234567,0,0)" xlink:href="#P"/><use transform="matrix(0.06234567901234567,0,0,0.06234567901234567,11.22222222222222,0)" xlink:href="#aw"/><use transform="matrix(0.06234567901234567,0,0,0.06234567901234567,16.147530864197527,0)" xlink:href="#H"/><use transform="matrix(0.06234567901234567,0,0,0.06234567901234567,28.61666666666666,0)" xlink:href="#F"/><use transform="matrix(0.06234567901234567,0,0,0.06234567901234567,41.08580246913579,0)" xlink:href="#at"/></g><g id="z"><use transform="matrix(0.06234567901234567,0,0,0.06234567901234567,0,0)" xlink:href="#P"/><use transform="matrix(0.06234567901234567,0,0,0.06234567901234567,11.22222222222222,0)" xlink:href="#aw"/><use transform="matrix(0.06234567901234567,0,0,0.06234567901234567,16.147530864197527,0)" xlink:href="#H"/><use transform="matrix(0.06234567901234567,0,0,0.06234567901234567,28.61666666666666,0)" xlink:href="#F"/><use transform="matrix(0.06234567901234567,0,0,0.06234567901234567,41.08580246913579,0)" xlink:href="#at"/></g><path fill="#282c33" d="M108 0H70L1-190h34L89-25l56-165h34" id="aB"/><g id="A"><use transform="matrix(0.06234567901234567,0,0,0.06234567901234567,0,0)" xlink:href="#L"/><use transform="matrix(0.06234567901234567,0,0,0.06234567901234567,12.469135802469133,0)" xlink:href="#at"/><use transform="matrix(0.06234567901234567,0,0,0.06234567901234567,19.888271604938268,0)" xlink:href="#H"/><use transform="matrix(0.06234567901234567,0,0,0.06234567901234567,32.3574074074074,0)" xlink:href="#aB"/><use transform="matrix(0.06234567901234567,0,0,0.06234567901234567,43.57962962962962,0)" xlink:href="#as"/><use transform="matrix(0.06234567901234567,0,0,0.06234567901234567,48.50493827160493,0)" xlink:href="#ak"/><use transform="matrix(0.06234567901234567,0,0,0.06234567901234567,60.97407407407406,0)" xlink:href="#K"/><use transform="matrix(0.06234567901234567,0,0,0.06234567901234567,73.4432098765432,0)" xlink:href="#I"/></g><g id="B"><use transform="matrix(0.06234567901234567,0,0,0.06234567901234567,0,0)" xlink:href="#L"/><use transform="matrix(0.06234567901234567,0,0,0.06234567901234567,12.469135802469133,0)" xlink:href="#at"/><use transform="matrix(0.06234567901234567,0,0,0.06234567901234567,19.888271604938268,0)" xlink:href="#H"/><use transform="matrix(0.06234567901234567,0,0,0.06234567901234567,32.3574074074074,0)" xlink:href="#aB"/><use transform="matrix(0.06234567901234567,0,0,0.06234567901234567,43.57962962962962,0)" xlink:href="#as"/><use transform="matrix(0.06234567901234567,0,0,0.06234567901234567,48.50493827160493,0)" xlink:href="#ak"/><use transform="matrix(0.06234567901234567,0,0,0.06234567901234567,60.97407407407406,0)" xlink:href="#K"/><use transform="matrix(0.06234567901234567,0,0,0.06234567901234567,73.4432098765432,0)" xlink:href="#I"/></g><g id="C"><use transform="matrix(0.06234567901234567,0,0,0.06234567901234567,0,0)" xlink:href="#L"/><use transform="matrix(0.06234567901234567,0,0,0.06234567901234567,12.469135802469133,0)" xlink:href="#ak"/><use transform="matrix(0.06234567901234567,0,0,0.06234567901234567,24.938271604938265,0)" xlink:href="#I"/><use transform="matrix(0.06234567901234567,0,0,0.06234567901234567,36.16049382716049,0)" xlink:href="#as"/><use transform="matrix(0.06234567901234567,0,0,0.06234567901234567,41.08580246913579,0)" xlink:href="#J"/><use transform="matrix(0.06234567901234567,0,0,0.06234567901234567,47.320370370370355,0)" xlink:href="#as"/><use transform="matrix(0.06234567901234567,0,0,0.06234567901234567,52.24567901234566,0)" xlink:href="#ak"/><use transform="matrix(0.06234567901234567,0,0,0.06234567901234567,64.71481481481479,0)" xlink:href="#O"/></g><g id="D"><use transform="matrix(0.06234567901234567,0,0,0.06234567901234567,0,0)" xlink:href="#at"/><use transform="matrix(0.06234567901234567,0,0,0.06234567901234567,7.4191358024691345,0)" xlink:href="#H"/><use transform="matrix(0.06234567901234567,0,0,0.06234567901234567,19.888271604938268,0)" xlink:href="#O"/><use transform="matrix(0.06234567901234567,0,0,0.06234567901234567,32.3574074074074,0)" xlink:href="#M"/><use transform="matrix(0.06234567901234567,0,0,0.06234567901234567,44.82654320987653,0)" xlink:href="#H"/><use transform="matrix(0.06234567901234567,0,0,0.06234567901234567,57.295679012345666,0)" xlink:href="#at"/></g></defs></g></svg>